<?xml version="1.0" encoding="UTF-8"?>
<!DOCTYPE svg PUBLIC "-//W3C//DTD SVG 1.1//EN" "http://www.w3.org/Graphics/SVG/1.1/DTD/svg11.dtd">
<!-- Creator: CorelDRAW -->
<svg xmlns="http://www.w3.org/2000/svg" xml:space="preserve" width="80.9074mm" height="26.6121mm" version="1.1" style="shape-rendering:geometricPrecision; text-rendering:geometricPrecision; image-rendering:optimizeQuality; fill-rule:evenodd; clip-rule:evenodd"
viewBox="0 0 6135.55 2018.11"
 xmlns:xlink="http://www.w3.org/1999/xlink"
 xmlns:xodm="http://www.corel.com/coreldraw/odm/2003">
 <defs>
  <style type="text/css">
   <![CDATA[
    .fil4 {fill:#1DDBA9;fill-rule:nonzero}
    .fil5 {fill:#4A3DFF;fill-rule:nonzero}
    .fil1 {fill:#545F75;fill-rule:nonzero}
    .fil0 {fill:#617087;fill-rule:nonzero}
    .fil2 {fill:#C6C9CC;fill-rule:nonzero}
    .fil3 {fill:white;fill-rule:nonzero}
   ]]>
  </style>
 </defs>
 <g id="Camada_x0020_1">
  <metadata id="CorelCorpID_0Corel-Layer"/>
  <g id="_2090210058912">
   <path class="fil0" d="M8.54 1581.67l0 7.26 16.2 0 0 61.54 7.85 0 0 -68.8 -24.05 0zm79.69 -0.19c-16.39,0 -25.52,12.36 -25.52,34.54 0,22.28 9.13,34.65 25.52,34.65 16.3,0 25.42,-12.37 25.42,-34.65 0,-22.18 -9.12,-34.54 -25.42,-34.54zm0 6.48c11.48,0 17.57,9.32 17.57,28.07 0,18.75 -6.09,28.27 -17.57,28.27 -11.68,0 -17.66,-9.52 -17.66,-28.27 0,-18.75 5.98,-28.07 17.66,-28.07zm60.55 -6.48c-16.39,0 -25.52,12.36 -25.52,34.54 0,22.28 9.13,34.65 25.52,34.65 16.3,0 25.42,-12.37 25.42,-34.65 0,-22.18 -9.12,-34.54 -25.42,-34.54zm0 6.48c11.48,0 17.57,9.32 17.57,28.07 0,18.75 -6.09,28.27 -17.57,28.27 -11.68,0 -17.66,-9.52 -17.66,-28.27 0,-18.75 5.98,-28.07 17.66,-28.07zm60.55 -6.48c-16.39,0 -25.52,12.36 -25.52,34.54 0,22.28 9.13,34.65 25.52,34.65 16.3,0 25.42,-12.37 25.42,-34.65 0,-22.18 -9.12,-34.54 -25.42,-34.54zm0 6.48c11.48,0 17.57,9.32 17.57,28.07 0,18.75 -6.09,28.27 -17.57,28.27 -11.68,0 -17.66,-9.52 -17.66,-28.27 0,-18.75 5.98,-28.07 17.66,-28.07z"/>
   <path class="fil0" d="M8.54 1187.03l0 7.26 16.2 0 0 61.54 7.85 0 0 -68.8 -24.05 0zm66.25 27.1l0 -19.83 34.65 0 0 -7.26 -42.01 0 0 35.14c5.3,-1.18 13.94,-1.87 18.75,-1.87 10.9,0 17.87,5.3 17.87,13.54 0,9.32 -6.97,15.11 -18.06,15.11 -6.58,0 -14.33,-2.55 -20.32,-6.77l-3.24 6.38c6.87,4.52 16.3,7.46 24.34,7.46 15.51,0 25.52,-8.93 25.52,-22.67 0,-11.78 -9.71,-20.22 -24.93,-20.22 -3.44,0 -8.64,0.3 -12.57,0.99zm74 -27.29c-16.39,0 -25.52,12.36 -25.52,34.54 0,22.28 9.13,34.65 25.52,34.65 16.3,0 25.42,-12.37 25.42,-34.65 0,-22.18 -9.12,-34.54 -25.42,-34.54zm0 6.48c11.48,0 17.57,9.32 17.57,28.07 0,18.75 -6.09,28.27 -17.57,28.27 -11.68,0 -17.66,-9.52 -17.66,-28.27 0,-18.75 5.98,-28.07 17.66,-28.07zm60.55 -6.48c-16.39,0 -25.52,12.36 -25.52,34.54 0,22.28 9.13,34.65 25.52,34.65 16.3,0 25.42,-12.37 25.42,-34.65 0,-22.18 -9.12,-34.54 -25.42,-34.54zm0 6.48c11.48,0 17.57,9.32 17.57,28.07 0,18.75 -6.09,28.27 -17.57,28.27 -11.68,0 -17.66,-9.52 -17.66,-28.27 0,-18.75 5.98,-28.07 17.66,-28.07z"/>
   <path class="fil0" d="M29.74 826.96l-26.89 27.88 0 6.38 49.07 0 0 -7.26 -39.06 0 22.28 -22.67c7.55,-7.86 12.66,-15.8 12.66,-22.28 0,-10.31 -8.64,-16.88 -21.69,-16.88 -8.44,0 -17.08,3.62 -23.95,9.52l3.44 5.98c5.7,-5.19 13.05,-8.44 19.53,-8.44 9.02,0 14.52,4.03 14.52,10.8 0,4.51 -3.93,10.9 -9.91,16.98zm58.49 -34.74c-16.39,0 -25.52,12.36 -25.52,34.54 0,22.28 9.13,34.65 25.52,34.65 16.3,0 25.42,-12.37 25.42,-34.65 0,-22.18 -9.12,-34.54 -25.42,-34.54zm0 6.48c11.48,0 17.57,9.32 17.57,28.07 0,18.75 -6.09,28.27 -17.57,28.27 -11.68,0 -17.66,-9.52 -17.66,-28.27 0,-18.75 5.98,-28.07 17.66,-28.07zm60.55 -6.48c-16.39,0 -25.52,12.36 -25.52,34.54 0,22.28 9.13,34.65 25.52,34.65 16.3,0 25.42,-12.37 25.42,-34.65 0,-22.18 -9.12,-34.54 -25.42,-34.54zm0 6.48c11.48,0 17.57,9.32 17.57,28.07 0,18.75 -6.09,28.27 -17.57,28.27 -11.68,0 -17.66,-9.52 -17.66,-28.27 0,-18.75 5.98,-28.07 17.66,-28.07zm60.55 -6.48c-16.39,0 -25.52,12.36 -25.52,34.54 0,22.28 9.13,34.65 25.52,34.65 16.3,0 25.42,-12.37 25.42,-34.65 0,-22.18 -9.12,-34.54 -25.42,-34.54zm0 6.48c11.48,0 17.57,9.32 17.57,28.07 0,18.75 -6.09,28.27 -17.57,28.27 -11.68,0 -17.66,-9.52 -17.66,-28.27 0,-18.75 5.98,-28.07 17.66,-28.07z"/>
   <path class="fil0" d="M29.74 432.31l-26.89 27.88 0 6.38 49.07 0 0 -7.26 -39.06 0 22.28 -22.67c7.55,-7.86 12.66,-15.8 12.66,-22.28 0,-10.31 -8.64,-16.88 -21.69,-16.88 -8.44,0 -17.08,3.62 -23.95,9.52l3.44 5.98c5.7,-5.19 13.05,-8.44 19.53,-8.44 9.02,0 14.52,4.03 14.52,10.8 0,4.51 -3.93,10.9 -9.91,16.98zm45.05 -7.45l0 -19.83 34.65 0 0 -7.26 -42.01 0 0 35.14c5.3,-1.18 13.94,-1.87 18.75,-1.87 10.9,0 17.87,5.3 17.87,13.54 0,9.32 -6.97,15.11 -18.06,15.11 -6.58,0 -14.33,-2.55 -20.32,-6.77l-3.24 6.38c6.87,4.52 16.3,7.46 24.34,7.46 15.51,0 25.52,-8.93 25.52,-22.67 0,-11.78 -9.71,-20.22 -24.93,-20.22 -3.44,0 -8.64,0.3 -12.57,0.99zm74 -27.29c-16.39,0 -25.52,12.36 -25.52,34.54 0,22.28 9.13,34.65 25.52,34.65 16.3,0 25.42,-12.37 25.42,-34.65 0,-22.18 -9.12,-34.54 -25.42,-34.54zm0 6.48c11.48,0 17.57,9.32 17.57,28.07 0,18.75 -6.09,28.27 -17.57,28.27 -11.68,0 -17.66,-9.52 -17.66,-28.27 0,-18.75 5.98,-28.07 17.66,-28.07zm60.55 -6.48c-16.39,0 -25.52,12.36 -25.52,34.54 0,22.28 9.13,34.65 25.52,34.65 16.3,0 25.42,-12.37 25.42,-34.65 0,-22.18 -9.12,-34.54 -25.42,-34.54zm0 6.48c11.48,0 17.57,9.32 17.57,28.07 0,18.75 -6.09,28.27 -17.57,28.27 -11.68,0 -17.66,-9.52 -17.66,-28.27 0,-18.75 5.98,-28.07 17.66,-28.07z"/>
   <path class="fil0" d="M26.9 29.54l-4.22 -0.2 24.05 -23.85 0 -5.2 -43.48 0 0.09 7.26 33.47 0 -22.87 22.58 0 4.81 9.13 0c12.17,0 19.43,4.51 19.43,13.25 0,8.54 -7.16,14.33 -19.23,14.33 -7.17,0 -14.43,-2.46 -19.83,-6.48l-3.44 6.48c6.09,4.02 15.02,6.77 23.66,6.77 16.39,0 26.5,-8.74 26.5,-21.4 0,-11.09 -9.23,-17.66 -23.26,-18.35zm61.33 -29.54c-16.39,0 -25.52,12.36 -25.52,34.54 0,22.28 9.13,34.65 25.52,34.65 16.3,0 25.42,-12.37 25.42,-34.65 0,-22.18 -9.12,-34.54 -25.42,-34.54zm0 6.48c11.48,0 17.57,9.32 17.57,28.07 0,18.75 -6.09,28.27 -17.57,28.27 -11.68,0 -17.66,-9.52 -17.66,-28.27 0,-18.75 5.98,-28.07 17.66,-28.07zm60.55 -6.48c-16.39,0 -25.52,12.36 -25.52,34.54 0,22.28 9.13,34.65 25.52,34.65 16.3,0 25.42,-12.37 25.42,-34.65 0,-22.18 -9.12,-34.54 -25.42,-34.54zm0 6.48c11.48,0 17.57,9.32 17.57,28.07 0,18.75 -6.09,28.27 -17.57,28.27 -11.68,0 -17.66,-9.52 -17.66,-28.27 0,-18.75 5.98,-28.07 17.66,-28.07zm60.55 -6.48c-16.39,0 -25.52,12.36 -25.52,34.54 0,22.28 9.13,34.65 25.52,34.65 16.3,0 25.42,-12.37 25.42,-34.65 0,-22.18 -9.12,-34.54 -25.42,-34.54zm0 6.48c11.48,0 17.57,9.32 17.57,28.07 0,18.75 -6.09,28.27 -17.57,28.27 -11.68,0 -17.66,-9.52 -17.66,-28.27 0,-18.75 5.98,-28.07 17.66,-28.07z"/>
   <path class="fil0" d="M557.72 1948.82c-16.39,0 -25.52,12.36 -25.52,34.54 0,22.28 9.13,34.65 25.52,34.65 16.3,0 25.42,-12.37 25.42,-34.65 0,-22.18 -9.12,-34.54 -25.42,-34.54zm0 6.48c11.48,0 17.57,9.32 17.57,28.07 0,18.75 -6.09,28.27 -17.57,28.27 -11.68,0 -17.66,-9.52 -17.66,-28.27 0,-18.75 5.98,-28.07 17.66,-28.07zm41.41 -6.29l0 7.26 16.2 0 0 61.54 7.85 0 0 -68.8 -24.05 0zm718.83 -0.19c-16.39,0 -25.52,12.36 -25.52,34.54 0,22.28 9.13,34.65 25.52,34.65 16.3,0 25.42,-12.37 25.42,-34.65 0,-22.18 -9.12,-34.54 -25.42,-34.54zm0 6.48c11.48,0 17.57,9.32 17.57,28.07 0,18.75 -6.09,28.27 -17.57,28.27 -11.68,0 -17.66,-9.52 -17.66,-28.27 0,-18.75 5.98,-28.07 17.66,-28.07zm62.62 28.26l-26.89 27.88 0 6.38 49.07 0 0 -7.26 -39.06 0 22.28 -22.67c7.55,-7.86 12.66,-15.8 12.66,-22.28 0,-10.31 -8.64,-16.88 -21.69,-16.88 -8.44,0 -17.08,3.62 -23.95,9.52l3.44 5.98c5.7,-5.19 13.05,-8.44 19.53,-8.44 9.02,0 14.52,4.03 14.52,10.8 0,4.51 -3.93,10.9 -9.91,16.98zm697.58 -34.74c-16.39,0 -25.52,12.36 -25.52,34.54 0,22.28 9.13,34.65 25.52,34.65 16.3,0 25.42,-12.37 25.42,-34.65 0,-22.18 -9.12,-34.54 -25.42,-34.54zm0 6.48c11.48,0 17.57,9.32 17.57,28.07 0,18.75 -6.09,28.27 -17.57,28.27 -11.68,0 -17.66,-9.52 -17.66,-28.27 0,-18.75 5.98,-28.07 17.66,-28.07zm59.77 23.06l-4.22 -0.2 24.05 -23.85 0 -5.2 -43.48 0 0.09 7.26 33.47 0 -22.87 22.58 0 4.81 9.13 0c12.17,0 19.43,4.51 19.43,13.25 0,8.54 -7.16,14.33 -19.23,14.33 -7.17,0 -14.43,-2.46 -19.83,-6.48l-3.44 6.48c6.09,4.02 15.02,6.77 23.66,6.77 16.39,0 26.5,-8.74 26.5,-21.4 0,-11.09 -9.23,-17.66 -23.26,-18.35zm702.76 -29.54c-16.39,0 -25.52,12.36 -25.52,34.54 0,22.28 9.13,34.65 25.52,34.65 16.3,0 25.42,-12.37 25.42,-34.65 0,-22.18 -9.12,-34.54 -25.42,-34.54zm0 6.48c11.48,0 17.57,9.32 17.57,28.07 0,18.75 -6.09,28.27 -17.57,28.27 -11.68,0 -17.66,-9.52 -17.66,-28.27 0,-18.75 5.98,-28.07 17.66,-28.07zm60.06 -6.29l-25.81 44.26 0 6.29 34.44 0 0 18.25 7.36 0 0 -18.25 10.8 0 0 -7.26 -10.8 0 0 -18.35 -7.36 0 0 18.35 -26.1 0 25.22 -43.29 -7.76 0zm697.92 -0.19c-16.39,0 -25.52,12.36 -25.52,34.54 0,22.28 9.13,34.65 25.52,34.65 16.3,0 25.42,-12.37 25.42,-34.65 0,-22.18 -9.12,-34.54 -25.42,-34.54zm0 6.48c11.48,0 17.57,9.32 17.57,28.07 0,18.75 -6.09,28.27 -17.57,28.27 -11.68,0 -17.66,-9.52 -17.66,-28.27 0,-18.75 5.98,-28.07 17.66,-28.07zm47.11 20.81l0 -19.83 34.65 0 0 -7.26 -42.01 0 0 35.14c5.3,-1.18 13.94,-1.87 18.75,-1.87 10.9,0 17.87,5.3 17.87,13.54 0,9.32 -6.97,15.11 -18.06,15.11 -6.58,0 -14.33,-2.55 -20.32,-6.77l-3.24 6.38c6.87,4.52 16.3,7.46 24.34,7.46 15.51,0 25.52,-8.93 25.52,-22.67 0,-11.78 -9.71,-20.22 -24.93,-20.22 -3.44,0 -8.64,0.3 -12.57,0.99zm652.6 -27.29c-16.39,0 -25.52,12.36 -25.52,34.54 0,22.28 9.13,34.65 25.52,34.65 16.3,0 25.42,-12.37 25.42,-34.65 0,-22.18 -9.12,-34.54 -25.42,-34.54zm0 6.48c11.48,0 17.57,9.32 17.57,28.07 0,18.75 -6.09,28.27 -17.57,28.27 -11.68,0 -17.66,-9.52 -17.66,-28.27 0,-18.75 5.98,-28.07 17.66,-28.07zm80.87 4.41l3.14 -6.08c-5.69,-2.95 -13.25,-4.91 -19.63,-4.91 -17.67,0 -28.66,14.33 -28.66,36.31 0,21.1 10.31,33.08 27.19,33.08 14.23,0 23.55,-8.64 23.55,-22.58 0,-13.35 -8.44,-21.69 -22.08,-21.69 -10.31,0 -17.77,4.61 -20.81,12.95 -1.18,-19.04 6.28,-31.3 21.3,-31.3 5.39,0 11.38,1.57 15.99,4.22zm-17.86 20.51c9.81,0 16.09,5.79 16.09,15.11 0,9.91 -6.87,15.9 -16.68,15.9 -11.97,0 -17.08,-8.64 -17.08,-15.31 0,-8.24 6.57,-15.71 17.67,-15.71zm757.72 -31.4c-16.39,0 -25.52,12.36 -25.52,34.54 0,22.28 9.13,34.65 25.52,34.65 16.3,0 25.42,-12.37 25.42,-34.65 0,-22.18 -9.12,-34.54 -25.42,-34.54zm0 6.48c11.48,0 17.57,9.32 17.57,28.07 0,18.75 -6.09,28.27 -17.57,28.27 -11.68,0 -17.66,-9.52 -17.66,-28.27 0,-18.75 5.98,-28.07 17.66,-28.07zm35.63 -6.29l0 17.37 7.07 0 0 -10.11 35.13 0 -30.52 61.54 8.34 0 30.72 -62.42 0 -6.39 -50.74 0zm724.62 -0.19c-16.39,0 -25.52,12.36 -25.52,34.54 0,22.28 9.13,34.65 25.52,34.65 16.3,0 25.42,-12.37 25.42,-34.65 0,-22.18 -9.12,-34.54 -25.42,-34.54zm0 6.48c11.48,0 17.57,9.32 17.57,28.07 0,18.75 -6.09,28.27 -17.57,28.27 -11.68,0 -17.66,-9.52 -17.66,-28.27 0,-18.75 5.98,-28.07 17.66,-28.07zm60.46 -6.57c-13.45,0 -21.98,6.48 -21.98,16.98 0,7.26 4.32,12.56 11.48,15.31 -9.12,2.65 -14.72,8.93 -14.72,17.66 0,12.17 9.71,19.44 25.32,19.44 15.61,0 25.32,-7.36 25.32,-19.53 0,-8.64 -5.49,-14.92 -14.42,-17.56 6.87,-2.65 11.09,-7.86 11.09,-15.02 0,-10.79 -8.44,-17.27 -22.08,-17.27zm0.1 5.98c9.62,0 15.21,4.32 15.21,11.78 0,7.36 -5.59,11.78 -15.21,11.78 -9.62,0 -15.31,-4.41 -15.31,-11.78 0,-7.45 5.7,-11.78 15.31,-11.78zm-0.1 29.93c11.29,0 17.97,5.1 17.97,13.35 0,8.64 -6.67,13.74 -17.87,13.74 -11.28,0 -17.96,-5.1 -17.96,-13.84 0,-8.24 6.67,-13.26 17.86,-13.26z"/>
   <polygon class="fil1" points="581.28,1926.56 594.65,1926.56 594.65,1865.73 581.28,1865.73 "/>
   <polygon class="fil1" points="1341.51,1926.56 1354.88,1926.56 1354.88,1865.73 1341.51,1865.73 "/>
   <polygon class="fil1" points="2101.74,1926.56 2115.12,1926.56 2115.12,1865.73 2101.74,1865.73 "/>
   <polygon class="fil1" points="2861.99,1926.56 2875.37,1926.56 2875.37,1865.73 2861.99,1865.73 "/>
   <polygon class="fil1" points="3622.22,1926.56 3635.6,1926.56 3635.6,1865.73 3622.22,1865.73 "/>
   <polygon class="fil1" points="4321.94,1926.56 4335.31,1926.56 4335.31,1865.73 4321.94,1865.73 "/>
   <polygon class="fil1" points="5142.71,1926.56 5156.08,1926.56 5156.08,1865.73 5142.71,1865.73 "/>
   <polygon class="fil1" points="5902.94,1926.56 5916.31,1926.56 5916.31,1865.73 5902.94,1865.73 "/>
   <polygon class="fil2" points="401.93,444.15 6135.55,444.15 6135.55,430.77 401.93,430.77 "/>
   <polygon class="fil2" points="401.93,838.8 6135.55,838.8 6135.55,825.43 401.93,825.43 "/>
   <polygon class="fil2" points="401.93,46.58 6135.55,46.58 6135.55,33.2 401.93,33.2 "/>
   <polygon class="fil2" points="401.93,1233.45 6135.55,1233.45 6135.55,1220.08 401.93,1220.08 "/>
   <polygon class="fil2" points="401.93,1628.11 6135.55,1628.11 6135.55,1614.73 401.93,1614.73 "/>
   <path class="fil3" d="M2820.58 702.9c-21.58,0 -39.14,-17.93 -39.14,-39.94 0,-22.05 17.56,-39.97 39.14,-39.97 21.59,0 39.15,17.93 39.15,39.97 0,22.01 -17.56,39.94 -39.15,39.94z"/>
   <polygon class="fil4" points="553.67,1627.14 375.61,1627.14 386.41,1014.72 564.48,1014.72 "/>
   <polygon class="fil5" points="800.33,1627.14 622.29,1627.14 633.07,666.06 811.14,666.06 "/>
   <polygon class="fil4" points="1136.85,1627.14 1318.61,1627.14 1318.61,975.55 1136.85,975.55 "/>
   <polygon class="fil5" points="1388.65,1627.14 1570.38,1627.14 1570.38,698.3 1388.65,698.3 "/>
   <polygon class="fil4" points="2079.91,1627.14 1901.85,1627.14 1901.15,562.9 2079.19,562.9 "/>
   <polygon class="fil5" points="2326.57,1627.14 2148.51,1627.14 2147.81,345.35 2325.87,345.35 "/>
   <polygon class="fil4" points="2661.73,1627.14 2839.79,1627.14 2839.79,214.75 2661.73,214.75 "/>
   <polygon class="fil5" points="2908.41,1627.14 3086.44,1627.14 3086.44,65.46 2908.41,65.46 "/>
   <polygon class="fil4" points="3421.95,1627.14 3600.03,1627.14 3600.03,893.02 3421.95,893.02 "/>
   <polygon class="fil5" points="3668.64,1627.14 3846.68,1627.14 3846.68,717.63 3668.64,717.63 "/>
   <polygon class="fil4" points="4121.7,1627.14 4299.74,1627.14 4299.74,284.51 4121.7,284.51 "/>
   <polygon class="fil5" points="4368.36,1627.14 4546.41,1627.14 4546.41,698.3 4368.36,698.3 "/>
   <polygon class="fil4" points="4942.44,1627.14 5120.5,1627.14 5120.5,53.25 4942.44,53.25 "/>
   <polygon class="fil5" points="5189.12,1627.14 5367.17,1627.14 5367.17,227.62 5189.12,227.62 "/>
   <polygon class="fil4" points="5702.7,1627.14 5880.74,1627.14 5880.74,637.46 5702.7,637.46 "/>
   <polygon class="fil5" points="5949.36,1627.14 6127.43,1627.14 6127.43,89.78 5949.36,89.78 "/>
  </g>
 </g>
</svg>
