<?xml version="1.0" encoding="UTF-8"?>
<!DOCTYPE svg PUBLIC "-//W3C//DTD SVG 1.1//EN" "http://www.w3.org/Graphics/SVG/1.1/DTD/svg11.dtd">
<!-- Creator: CorelDRAW -->
<svg xmlns="http://www.w3.org/2000/svg" xml:space="preserve" width="54.145mm" height="14.5608mm" version="1.1" style="shape-rendering:geometricPrecision; text-rendering:geometricPrecision; image-rendering:optimizeQuality; fill-rule:evenodd; clip-rule:evenodd"
viewBox="0 0 3338.26 897.73"
 xmlns:xlink="http://www.w3.org/1999/xlink"
 xmlns:xodm="http://www.corel.com/coreldraw/odm/2003">
 <defs>
  <style type="text/css">
   <![CDATA[
    .fil0 {fill:#1DDBA9;fill-rule:nonzero}
    .fil2 {fill:#4A3DFF;fill-rule:nonzero}
    .fil1 {fill:#617087;fill-rule:nonzero}
   ]]>
  </style>
 </defs>
 <g id="Camada_x0020_1">
  <metadata id="CorelCorpID_0Corel-Layer"/>
  <path class="fil0" d="M42.45 763.94c0,-7.65 7.24,-11.47 17.91,-11.47 11.26,0 28.97,5.64 43.86,14.48l12.27 -26.35c-11.47,-7.65 -26.76,-13.08 -42.86,-14.69l0 -28.37 -23.13 0 0 28.57c-25.56,3.62 -42.05,18.71 -42.05,40.84 0,49.9 75.05,34.41 75.05,60.96 0,8.66 -7.84,13.48 -20.92,13.48 -14.89,0 -35.41,-8.25 -49.9,-21.13l-12.68 25.96c13.27,11.26 31.38,19.32 50.5,21.53l0 29.98 23.13 0 0 -29.98c25.35,-3.22 43.66,-17.5 43.66,-41.65 0.2,-50.7 -74.85,-36.22 -74.85,-62.17zm215.08 21.12l-7.65 -1 40.84 -38.23 0 -19.11 -96.17 0 0 25.75 57.54 0 -36.02 34.61 0 17.5 22.53 0c17.91,0 27.97,6.44 27.97,19.32 0,12.27 -10.06,19.91 -27.76,19.91 -13.88,0 -27.36,-5.83 -38.63,-16.7l-12.87 25.35c13.48,9.86 34,16.49 53.92,16.49 34.6,0 56.53,-18.71 56.53,-45.47 0,-21.93 -16.5,-35.61 -40.24,-38.43zm74.85 52.52c-8.85,0 -15.49,6.44 -15.49,15.69 0,5.03 2.01,9.46 6.24,12.47l-8.45 20.32 15.09 0 13.48 -20.32c2.61,-3.62 4.22,-7.65 4.22,-12.47 0,-10.06 -7.04,-15.69 -15.09,-15.69zm42.65 -111.06l0 26.96 28.17 0 0 114.08 31.79 0 0 -141.04 -59.96 0zm166.19 65.39l-52.11 53.72 0 21.93 105.83 0 0 -26.76 -64.78 0 32.79 -32.39c15.49,-16.1 26.96,-31.79 26.96,-46.88 0,-22.13 -19.92,-36.41 -48.09,-36.41 -19.91,0 -39.03,7.85 -56.33,20.93l12.47 23.74c12.68,-10.86 27.16,-17.7 39.24,-17.7 12.27,0 19.31,5.23 19.31,14.29 0,6.84 -6.23,16.5 -15.29,25.55zm113.28 -65.39l-44.87 86.92 0 22.13 65.79 0 0 31.99 29.17 0 0 -31.99 19.32 0 0 -25.55 -19.12 0 -0.2 -31.18 -29.17 0 0 31.18 -32.79 0 42.05 -83.5 -30.18 0z"/>
  <path class="fil0" d="M1163.88 705.35l0 26.96 28.17 0 0 114.08 31.79 0 0 -141.04 -59.96 0zm128.17 111.06c-8.85,0 -15.49,6.44 -15.49,15.69 0,5.03 2.01,9.46 6.24,12.47l-8.45 20.32 15.09 0 13.48 -20.32c2.61,-3.62 4.22,-7.65 4.22,-12.47 0,-10.06 -7.04,-15.69 -15.09,-15.69zm95.97 -52.52l-7.65 -1 40.84 -38.23 0 -19.11 -96.17 0 0 25.75 57.54 0 -36.02 34.61 0 17.5 22.53 0c17.91,0 27.97,6.44 27.97,19.32 0,12.27 -10.06,19.91 -27.76,19.91 -13.88,0 -27.36,-5.83 -38.63,-16.7l-12.87 25.35c13.48,9.86 34,16.49 53.92,16.49 34.6,0 56.53,-18.71 56.53,-45.47 0,-21.93 -16.5,-35.61 -40.24,-38.43zm102.01 -58.55l-44.87 86.92 0 22.13 65.79 0 0 31.99 29.17 0 0 -31.99 19.32 0 0 -25.55 -19.12 0 -0.2 -31.18 -29.17 0 0 31.18 -32.79 0 42.05 -83.5 -30.18 0zm135.41 -1c-35.21,0 -54.53,25.55 -54.53,71.43 0,46.07 19.32,71.43 54.53,71.43 35.01,0 54.32,-25.35 54.32,-71.43 0,-45.88 -19.32,-71.43 -54.32,-71.43zm0 23.34c16.09,0 23.54,14.48 23.54,48.08 0,33.4 -7.45,48.08 -23.54,48.08 -16.3,0 -23.74,-14.69 -23.74,-48.08 0,-33.6 7.44,-48.08 23.74,-48.08zm85.71 88.73c-8.85,0 -15.49,6.44 -15.49,15.69 0,5.03 2.01,9.46 6.24,12.47l-8.45 20.32 15.09 0 13.48 -20.32c2.61,-3.62 4.22,-7.65 4.22,-12.47 0,-10.06 -7.04,-15.69 -15.09,-15.69zm84.7 -45.67l-52.11 53.72 0 21.93 105.83 0 0 -26.76 -64.78 0 32.79 -32.39c15.49,-16.1 26.96,-31.79 26.96,-46.88 0,-22.13 -19.92,-36.41 -48.09,-36.41 -19.91,0 -39.03,7.85 -56.33,20.93l12.47 23.74c12.68,-10.86 27.16,-17.7 39.24,-17.7 12.27,0 19.31,5.23 19.31,14.29 0,6.84 -6.23,16.5 -15.29,25.55zm135.41 -6.84l-7.65 -1 40.84 -38.23 0 -19.11 -96.17 0 0 25.75 57.54 0 -36.02 34.61 0 17.5 22.53 0c17.91,0 27.97,6.44 27.97,19.32 0,12.27 -10.06,19.91 -27.76,19.91 -13.88,0 -27.36,-5.83 -38.63,-16.7l-12.87 25.35c13.48,9.86 34,16.49 53.92,16.49 34.6,0 56.53,-18.71 56.53,-45.47 0,-21.93 -16.5,-35.61 -40.24,-38.43zm113.28 -59.55c-35.21,0 -54.53,25.55 -54.53,71.43 0,46.07 19.32,71.43 54.53,71.43 35.01,0 54.32,-25.35 54.32,-71.43 0,-45.88 -19.32,-71.43 -54.32,-71.43zm0 23.34c16.09,0 23.54,14.48 23.54,48.08 0,33.4 -7.45,48.08 -23.54,48.08 -16.3,0 -23.74,-14.69 -23.74,-48.08 0,-33.6 7.44,-48.08 23.74,-48.08z"/>
  <path class="fil0" d="M2574.1 705.37l0 26.96 28.17 0 0 114.08 31.79 0 0 -141.04 -59.96 0zm177.46 58.55l-7.65 -1 40.84 -38.23 0 -19.11 -96.17 0 0 25.75 57.54 0 -36.02 34.61 0 17.5 22.53 0c17.91,0 27.97,6.44 27.97,19.32 0,12.27 -10.06,19.91 -27.76,19.91 -13.88,0 -27.36,-5.83 -38.63,-16.7l-12.87 25.35c13.48,9.86 34,16.49 53.92,16.49 34.6,0 56.53,-18.71 56.53,-45.47 0,-21.93 -16.5,-35.61 -40.24,-38.43zm96.98 -7.24l0 -24.75 63.38 0 0 -26.56 -92.55 0 0 78.27c9.25,-0.81 30.98,-1.21 39.03,-1.21 16.3,0 25.75,7.04 25.75,18.91 0,13.08 -9.45,20.72 -25.95,20.72 -13.08,0 -26.56,-5.83 -37.82,-16.7l-12.88 25.15c14.89,10.26 36.01,17.1 54.32,17.1 34.21,0 56.33,-19.11 56.33,-48.29 0,-25.15 -21.12,-42.65 -53.72,-42.65l-15.89 0zm102.01 59.76c-8.85,0 -15.49,6.44 -15.49,15.69 0,5.03 2.01,9.46 6.24,12.47l-8.45 20.32 15.09 0 13.48 -20.32c2.61,-3.62 4.22,-7.65 4.22,-12.47 0,-10.06 -7.04,-15.69 -15.09,-15.69zm85.11 -112.07c-35.21,0 -54.53,25.55 -54.53,71.43 0,46.07 19.32,71.43 54.53,71.43 35.01,0 54.32,-25.35 54.32,-71.43 0,-45.88 -19.32,-71.43 -54.32,-71.43zm0 23.34c16.09,0 23.54,14.48 23.54,48.08 0,33.4 -7.45,48.08 -23.54,48.08 -16.3,0 -23.74,-14.69 -23.74,-48.08 0,-33.6 7.44,-48.08 23.74,-48.08zm123.73 43.05l-52.11 53.72 0 21.93 105.83 0 0 -26.76 -64.78 0 32.79 -32.39c15.49,-16.1 26.96,-31.79 26.96,-46.88 0,-22.13 -19.92,-36.41 -48.09,-36.41 -19.91,0 -39.03,7.85 -56.33,20.93l12.47 23.74c12.68,-10.86 27.16,-17.7 39.24,-17.7 12.27,0 19.31,5.23 19.31,14.29 0,6.84 -6.23,16.5 -15.29,25.55zm124.55 -66.4c-35.21,0 -54.53,25.55 -54.53,71.43 0,46.07 19.32,71.43 54.53,71.43 35.01,0 54.32,-25.35 54.32,-71.43 0,-45.88 -19.32,-71.43 -54.32,-71.43zm0 23.34c16.09,0 23.54,14.48 23.54,48.08 0,33.4 -7.45,48.08 -23.54,48.08 -16.3,0 -23.74,-14.69 -23.74,-48.08 0,-33.6 7.44,-48.08 23.74,-48.08z"/>
  <path class="fil1" d="M1339.84 4.93l-33.21 0 0 82.15 32.86 0c24.17,0 42.6,-17.72 42.6,-41.08 0,-23.35 -18.31,-41.07 -42.25,-41.07zm0.12 73.47l-23.94 0 0 -64.78 23.59 0c18.43,0 32.98,13.96 32.98,32.5 0,18.43 -14.32,32.28 -32.63,32.28zm83.09 -53.4c-18.43,0 -31.33,12.79 -31.33,31.1 0,18.42 12.9,31.33 31.33,31.33 18.31,0 31.34,-12.91 31.34,-31.33 0,-18.31 -13.03,-31.1 -31.34,-31.1zm0 8.1c12.91,0 22.18,9.51 22.18,23.13 0,13.85 -9.27,23.24 -22.18,23.24 -13.03,0 -22.18,-9.39 -22.18,-23.24 0,-13.62 9.16,-23.13 22.18,-23.13zm34.74 -7.74l23.12 61.73 9.51 0 18.08 -50.58 18.19 50.58 9.51 0 22.89 -61.73 -9.51 0 -18.07 52.46 -18.19 -52.46 -9.62 0 -17.95 52.46 -18.31 -52.46 -9.62 0zm146.11 -0.35c-11.27,0.12 -19.6,4.57 -23.95,13.96l0 -13.61 -9.16 0 0 61.73 9.16 0 0 -33.1c1.06,-11.97 8.57,-20.07 20.78,-20.19 10.91,0 17.49,6.57 17.49,17.6l0 35.68 9.16 0 0 -38.03c0,-15.02 -8.69,-24.06 -23.47,-24.06zm44.48 -25l0 87.09 9.15 0 0 -87.09 -9.15 0zm57.15 25c-18.43,0 -31.33,12.79 -31.33,31.1 0,18.42 12.9,31.33 31.33,31.33 18.31,0 31.34,-12.91 31.34,-31.33 0,-18.31 -13.03,-31.1 -31.34,-31.1zm0 8.1c12.91,0 22.18,9.51 22.18,23.13 0,13.85 -9.27,23.24 -22.18,23.24 -13.03,0 -22.18,-9.39 -22.18,-23.24 0,-13.62 9.16,-23.13 22.18,-23.13zm94.71 53.99l-0.12 -40.85c-0.12,-13.14 -8.57,-21.24 -23.82,-21.24 -10.57,0 -17.26,3.05 -25.24,8.34l3.87 6.46c6.46,-4.58 12.79,-7.16 19.6,-7.16 10.91,0 16.55,5.52 16.55,14.56l0 3.87 -20.3 0c-14.56,0.12 -23.12,6.92 -23.12,17.72 0,10.57 8.21,18.66 21.01,18.66 9.86,0 17.73,-3.29 22.65,-9.98l0 9.62 8.92 0zm-29.81 -7.28c-8.69,0 -14.21,-4.58 -14.21,-11.39 0,-6.92 5.4,-10.09 15.73,-10.09l19.25 0 0 7.51c-2.35,8.8 -10.33,13.97 -20.77,13.97zm97.88 -79.81l0 38.73c-4.57,-8.8 -13.14,-13.85 -24.17,-13.85 -17.49,0 -29.69,12.79 -29.69,31.22 0,18.42 12.2,31.45 29.81,31.45 11.03,0 19.48,-5.04 24.06,-13.73l0 13.26 9.16 0 0 -87.09 -9.16 0zm-22.3 79.69c-13.14,0 -22.42,-9.74 -22.42,-23.35 0,-13.62 9.27,-23.48 22.42,-23.48 13.03,0 22.3,9.86 22.3,23.48 0,13.61 -9.27,23.35 -22.3,23.35zm86.96 -42.13l3.52 -7.04c-5.16,-3.4 -12.32,-5.64 -19.72,-5.64 -11.26,0 -21.47,5.05 -21.47,16.78 -0.12,21.83 34.5,14.2 34.15,29.22 -0.12,6.22 -5.99,9.04 -13.26,9.04 -7.28,0 -15.25,-2.93 -20.54,-7.87l-3.52 6.69c5.87,5.64 14.9,8.69 23.71,8.69 11.86,0 22.65,-5.4 22.65,-17.49 0,-22.18 -34.5,-15.03 -34.5,-28.99 0,-5.87 5.28,-8.34 12.2,-8.34 5.75,0 11.97,1.88 16.78,4.93z"/>
  <path class="fil1" d="M97.85 4.93l0 82.15 57.27 0 0 -8.69 -47.88 0 0 -28.63 41.43 0 0 -8.57 -41.43 0 0 -27.58 46.36 0 0 -8.69 -55.75 0zm122.41 82.15l-0.12 -40.85c-0.12,-13.14 -8.57,-21.24 -23.82,-21.24 -10.57,0 -17.26,3.05 -25.24,8.34l3.87 6.46c6.46,-4.58 12.79,-7.16 19.6,-7.16 10.91,0 16.55,5.52 16.55,14.56l0 3.87 -20.3 0c-14.56,0.12 -23.12,6.92 -23.12,17.72 0,10.57 8.21,18.66 21.01,18.66 9.86,0 17.73,-3.29 22.65,-9.98l0 9.62 8.92 0zm-29.81 -7.28c-8.69,0 -14.21,-4.58 -14.21,-11.39 0,-6.92 5.4,-10.09 15.73,-10.09l19.25 0 0 7.51c-2.35,8.8 -10.33,13.97 -20.77,13.97zm59.39 -40.73l0 -13.73 -9.16 0 0 61.73 9.16 0 0 -32.86c1.06,-12.44 9.16,-20.54 22.18,-20.3l0 -8.92c-10.44,0.12 -18.08,5.05 -22.18,14.08zm67.6 -14.08c-11.27,0.12 -19.6,4.57 -23.95,13.96l0 -13.61 -9.16 0 0 61.73 9.16 0 0 -33.1c1.06,-11.97 8.57,-20.07 20.78,-20.19 10.91,0 17.49,6.57 17.49,17.6l0 35.68 9.16 0 0 -38.03c0,-15.02 -8.69,-24.06 -23.47,-24.06zm48.36 -23.59c-3.4,0 -5.99,2.58 -5.99,6.22 0,3.52 2.58,6.22 5.99,6.22 3.4,0 5.99,-2.7 5.99,-6.22 0,-3.64 -2.58,-6.22 -5.99,-6.22zm-4.46 23.94l0 61.73 9.04 0 0 -61.73 -9.04 0zm64.44 -0.35c-11.27,0.12 -19.6,4.57 -23.95,13.96l0 -13.61 -9.16 0 0 61.73 9.16 0 0 -33.1c1.06,-11.97 8.57,-20.07 20.78,-20.19 10.91,0 17.49,6.57 17.49,17.6l0 35.68 9.16 0 0 -38.03c0,-15.02 -8.69,-24.06 -23.47,-24.06zm88.61 0.35l0 12.56c-4.46,-8.22 -12.44,-13.03 -23,-12.91 -16.55,0.12 -27.93,12.21 -27.93,29.58 0,17.49 11.5,29.81 28.16,29.81 10.44,0 18.43,-4.69 22.77,-12.91l0 9.39c0,13.03 -8.8,21.36 -22.3,21.36 -8.21,-0.12 -14.67,-2.82 -20.77,-7.87l-4.22 6.69c7.51,5.75 15.6,8.92 25.35,9.04 18.78,0 31.1,-11.38 31.1,-29.46l0 -55.28 -9.16 0zm-21.12 51.52c-12.44,0 -21.13,-9.27 -21.25,-22.07 0.12,-12.91 8.8,-22.18 21.25,-22.18 12.32,0 21.12,9.27 21.12,22.18 0,12.79 -8.8,22.07 -21.12,22.07zm83.68 -39.32l3.52 -7.04c-5.16,-3.4 -12.32,-5.64 -19.72,-5.64 -11.26,0 -21.47,5.05 -21.47,16.78 -0.12,21.83 34.5,14.2 34.15,29.22 -0.12,6.22 -5.99,9.04 -13.26,9.04 -7.28,0 -15.25,-2.93 -20.54,-7.87l-3.52 6.69c5.87,5.64 14.9,8.69 23.71,8.69 11.86,0 22.65,-5.4 22.65,-17.49 0,-22.18 -34.5,-15.03 -34.5,-28.99 0,-5.87 5.28,-8.34 12.2,-8.34 5.75,0 11.97,1.88 16.78,4.93z"/>
  <path class="fil1" d="M2707.88 4.93l0 82.15 9.39 0 0 -35.44 38.37 0 0 -8.56 -38.37 0 0 -29.46 42.84 0 0 -8.69 -52.23 0zm112.08 82.15l-0.12 -40.85c-0.12,-13.14 -8.57,-21.24 -23.82,-21.24 -10.57,0 -17.26,3.05 -25.24,8.34l3.87 6.46c6.46,-4.58 12.79,-7.16 19.6,-7.16 10.91,0 16.55,5.52 16.55,14.56l0 3.87 -20.3 0c-14.56,0.12 -23.12,6.92 -23.12,17.72 0,10.57 8.21,18.66 21.01,18.66 9.86,0 17.73,-3.29 22.65,-9.98l0 9.62 8.92 0zm-29.81 -7.28c-8.69,0 -14.21,-4.58 -14.21,-11.39 0,-6.92 5.4,-10.09 15.73,-10.09l19.25 0 0 7.51c-2.35,8.8 -10.33,13.97 -20.77,13.97zm37.08 -54.46l24.53 61.73 9.51 0 24.29 -61.73 -9.27 0 -19.6 52.46 -19.72 -52.46 -9.74 0zm92.24 -0.35c-18.43,0 -31.33,12.79 -31.33,31.1 0,18.42 12.9,31.33 31.33,31.33 18.31,0 31.34,-12.91 31.34,-31.33 0,-18.31 -13.03,-31.1 -31.34,-31.1zm0 8.1c12.91,0 22.18,9.51 22.18,23.13 0,13.85 -9.27,23.24 -22.18,23.24 -13.03,0 -22.18,-9.39 -22.18,-23.24 0,-13.62 9.16,-23.13 22.18,-23.13zm56.57 5.99l0 -13.73 -9.16 0 0 61.73 9.16 0 0 -32.86c1.06,-12.44 9.16,-20.54 22.18,-20.3l0 -8.92c-10.44,0.12 -18.08,5.05 -22.18,14.08zm38.97 -37.67c-3.4,0 -5.99,2.58 -5.99,6.22 0,3.52 2.58,6.22 5.99,6.22 3.4,0 5.99,-2.7 5.99,-6.22 0,-3.64 -2.58,-6.22 -5.99,-6.22zm-4.46 23.94l0 61.73 9.04 0 0 -61.73 -9.04 0zm60.68 50.47c-3.4,1.99 -6.69,3.05 -9.86,3.17 -5.28,0 -8.21,-3.05 -8.21,-10.57l0 -34.03 19.6 0 0 -7.16 -19.6 0 0 -16.2 -9.04 0 0 16.2 -8.92 0 0 7.16 8.92 0 0 35.56c0,12.2 6.69,17.6 15.73,17.49 4.93,0 9.62,-1.64 13.96,-4.57l-2.58 -7.04zm39.91 -50.82c-17.96,0.12 -30.63,12.79 -30.63,31.22 0,18.42 12.55,31.22 30.75,31.22 10.33,0 19.01,-3.75 24.88,-10.21l-5.05 -5.28c-4.81,5.05 -11.5,7.87 -19.13,7.87 -12.09,0 -20.89,-7.98 -22.42,-20.19l50.47 0c0.94,-20.89 -8.92,-34.62 -28.87,-34.62zm-21.6 27.34c1.29,-11.97 9.74,-19.72 21.6,-19.72 12.09,0 20.07,7.75 20.65,19.72l-42.25 0zm98.82 -14.78l3.52 -7.04c-5.16,-3.4 -12.32,-5.64 -19.72,-5.64 -11.26,0 -21.47,5.05 -21.47,16.78 -0.12,21.83 34.5,14.2 34.15,29.22 -0.12,6.22 -5.99,9.04 -13.26,9.04 -7.28,0 -15.25,-2.93 -20.54,-7.87l-3.52 6.69c5.87,5.64 14.9,8.69 23.71,8.69 11.86,0 22.65,-5.4 22.65,-17.49 0,-22.18 -34.5,-15.03 -34.5,-28.99 0,-5.87 5.28,-8.34 12.2,-8.34 5.75,0 11.97,1.88 16.78,4.93z"/>
  <path class="fil2" d="M476.87 422.44c0,48.52 -36.8,77.21 -87.74,83.7l0 60.22 -46.48 0 0 -60.22c-38.39,-4.46 -74.77,-20.62 -101.46,-43.26l25.47 -52.16c29.1,25.88 70.34,42.46 100.25,42.46 26.27,0 42.04,-9.7 42.04,-27.08 0,-53.37 -150.78,-22.25 -150.78,-122.48 0,-44.48 33.15,-74.8 84.48,-82.06l0 -57.42 46.48 0 0 57.01c32.34,3.24 63.08,14.14 86.11,29.51l-24.64 52.96c-29.93,-17.79 -65.51,-29.12 -88.13,-29.12 -21.42,0 -35.98,7.68 -35.98,23.05 0,52.13 150.78,23.03 150.38,124.89z"/>
  <polygon class="fil2" points="1726.51,386.52 1726.51,216.76 1597.03,216.76 1597.03,386.52 1539.52,386.52 1661.76,532.99 1784.02,386.52 "/>
  <polygon class="fil2" points="2950.11,186.29 2997.22,299.85 3119.76,309.55 3026.32,389.44 3054.97,508.98 2950.11,444.82 2845.27,508.98 2873.89,389.44 2780.46,309.55 2903.02,299.85 "/>
 </g>
</svg>
