<?xml version="1.0" encoding="UTF-8"?>
<!DOCTYPE svg PUBLIC "-//W3C//DTD SVG 1.1//EN" "http://www.w3.org/Graphics/SVG/1.1/DTD/svg11.dtd">
<!-- Creator: CorelDRAW -->
<svg xmlns="http://www.w3.org/2000/svg" xml:space="preserve" width="8.115mm" height="8.1146mm" version="1.1" style="shape-rendering:geometricPrecision; text-rendering:geometricPrecision; image-rendering:optimizeQuality; fill-rule:evenodd; clip-rule:evenodd"
viewBox="0 0 34.91 34.91"
 xmlns:xlink="http://www.w3.org/1999/xlink"
 xmlns:xodm="http://www.corel.com/coreldraw/odm/2003">
 <defs>
  <style type="text/css">
   <![CDATA[
    .fil1 {fill:#E7E6E8;fill-rule:nonzero}
    .fil0 {fill:#FDFEFF;fill-rule:nonzero}
   ]]>
  </style>
 </defs>
 <g id="Camada_x0020_1">
  <metadata id="CorelCorpID_0Corel-Layer"/>
  <path class="fil0" d="M34.91 17.46c0,9.64 -7.82,17.46 -17.46,17.46 -9.64,0 -17.46,-7.82 -17.46,-17.46 0,-9.64 7.82,-17.46 17.46,-17.46 9.64,0 17.46,7.82 17.46,17.46z"/>
  <path class="fil1" d="M20.81 21.35c1.72,-1.11 2.86,-3.03 2.86,-5.22 0,-3.43 -2.78,-6.21 -6.21,-6.21 -3.43,0 -6.21,2.78 -6.21,6.21 0,2.19 1.14,4.12 2.86,5.22 -4.05,0.36 -7.23,3.77 -7.23,7.91l0 2.06c2.94,2.24 6.6,3.59 10.58,3.59 3.98,0 7.64,-1.35 10.58,-3.59l0 -2.06c0,-4.14 -3.18,-7.55 -7.23,-7.91z"/>
 </g>
</svg>
