<?xml version="1.0" encoding="UTF-8"?>
<!DOCTYPE svg PUBLIC "-//W3C//DTD SVG 1.1//EN" "http://www.w3.org/Graphics/SVG/1.1/DTD/svg11.dtd">
<!-- Creator: CorelDRAW -->
<svg xmlns="http://www.w3.org/2000/svg" xml:space="preserve" width="78.9233mm" height="36.3717mm" version="1.1" style="shape-rendering:geometricPrecision; text-rendering:geometricPrecision; image-rendering:optimizeQuality; fill-rule:evenodd; clip-rule:evenodd"
viewBox="0 0 6018.84 2773.78"
 xmlns:xlink="http://www.w3.org/1999/xlink"
 xmlns:xodm="http://www.corel.com/coreldraw/odm/2003">
 <defs>
  <style type="text/css">
   <![CDATA[
    .fil1 {fill:#1DDBA9;fill-rule:nonzero}
    .fil2 {fill:#4A3DFF;fill-rule:nonzero}
    .fil0 {fill:#EDEDED;fill-rule:nonzero}
   ]]>
  </style>
 </defs>
 <g id="Camada_x0020_1">
  <metadata id="CorelCorpID_0Corel-Layer"/>
  <path class="fil0" d="M5996.8 2404.1c6.92,-0.59 16.2,-6.75 22.04,-1.16 -4.22,10.01 -11.76,19.7 -22.04,24.35 -4.81,2.13 -11.16,1.34 -16.22,3.47 -9.63,3.98 -14.71,14.02 -23.14,20.88 -7.98,6.48 -18.51,12.02 -26.71,17.4 -7.85,5.09 -19.32,15.6 -28.95,8.07 0.73,-13.56 15.18,-13.39 18.57,-24.37 -0.06,-8.1 -7.24,-8.98 -6.97,-17.38 16.06,-14.07 41.32,-24.18 45.17,-53.27 1.75,-12.89 -8.72,-40.54 6.97,-41.75 18.46,-1.4 8.04,18.56 9.28,28.98 0.48,4.19 4.81,7.1 6.91,12.77 3.85,10.12 3.53,19.37 15.09,22.01z"/>
  <path class="fil0" d="M5884.38 2473.62c-6.43,19.37 -34.62,29.48 -53.32,41.75 -5.7,3.77 -10.39,12.35 -17.38,15.01 -9.04,3.64 -19.32,2.45 -28.95,6.97 -15.31,7.21 -26.82,21.28 -40.57,30.16 -13.48,8.66 -33.14,20.85 -48.69,22 -17.17,1.32 -48.83,-9.71 -27.82,-25.47 9.09,-6.81 28.44,-14.8 38.26,-19.67 32.95,-16.57 79.3,-27.71 106.61,-47.56 15.42,-11.22 29.38,-23.14 44.07,-32.45 7.29,-4.68 19.64,7.89 27.79,9.26z"/>
  <path class="fil0" d="M5683.86 1698.25c3.71,-1.02 3.61,1.81 5.81,2.32 -1.4,16.54 -11.32,27.39 -32.47,25.52 -9.44,-0.88 -25.96,-7.96 -26.63,-12.75 -2.37,-16.65 42.69,-6.4 53.29,-15.09z"/>
  <path class="fil0" d="M5627.07 1777.06c8.37,2.37 45.6,28.74 33.6,40.54 -6.48,6.51 -14.85,-3.44 -25.45,-5.76 -14.18,-3.12 -25.07,0.68 -34.78,-6.96 -11.04,-8.64 -13.67,-27.45 -25.51,-38.23 -5.97,-5.49 -21.77,-12.78 -32.42,-11.62 -18.42,1.99 -18.23,23.08 -34.78,32.47 -15.82,-1.72 -25.18,2.88 -37.1,-1.18 -12.54,-4.26 -18.83,-20.51 -30.15,-21.99 -11.76,-1.61 -39.66,18.97 -44.02,1.16 -3.52,-14.44 19.45,-19.18 20.85,-29 1.48,-10.06 -9.04,-25.72 -13.91,-30.13 -4.87,-4.39 -11.68,-4.74 -17.38,-8.1 -5.92,-3.55 -10.52,-10.33 -17.4,-13.91 -24.27,-12.67 -61.34,-7.5 -70.68,-27.81 -1.66,-3.61 0.92,-7.57 -1.15,-12.76 -2.53,-6.34 -11.87,-8.39 -15.09,-13.88 -8.21,-14.15 -2.45,-35.03 11.59,-37.12 12.67,-1.88 37.67,13.74 40.57,23.21 1.56,4.95 -1.05,10.49 0,16.2 1.32,6.86 11.54,23.6 20.88,24.35 11.97,0.97 19.07,-17.57 30.1,-24.35 7.64,-4.65 20.13,-10.06 30.16,-9.26 9.85,0.73 16.46,8.5 27.79,12.71 8.1,3.07 18.21,4.27 27.84,6.96 8.4,2.39 15.69,7.34 24.32,10.44 27.58,10.01 60.43,15.87 75.33,33.63 4.06,4.87 3.98,12.03 9.31,17.38 4.9,4.95 31.69,9.79 32.42,20.87 0.59,8.42 -11.04,8.93 -11.57,17.38 -1.08,16.87 22.6,15.9 26.63,34.76z"/>
  <path class="fil0" d="M5382.52 2471.3c-3.45,14.45 -14.47,30.54 -28.98,40.57 -10.46,7.27 -43.69,21.98 -47.48,1.18 -1.08,-5.8 6.45,-32.69 9.23,-38.25 8.21,-16.25 16.95,-5.62 30.13,-3.5 13.56,2.21 26.29,-8.21 37.1,0z"/>
  <path class="fil0" d="M5292.12 786.09c4.71,13.91 7.92,27.63 11.62,40.57 -12.8,15.9 -38.06,10.01 -56.79,18.53 -8.79,4.01 -11.24,18.65 -19.72,20.88 -6.83,1.78 -12.1,-5.92 -18.53,-5.81 -16.66,0.32 -24.81,27.87 -45.22,20.85 -11.68,6.99 0.46,33.68 -13.89,35.92 -10.22,1.61 -15.85,-11.57 -22.06,-19.67 -7.47,-9.85 -18.21,-15.23 -18.48,-23.19 -0.32,-8.26 16.59,-22.09 21.98,-27.79 6.59,-7.05 19.51,-20.21 27.79,-22.06 15.47,-3.39 31.15,1.5 42.94,-3.45 10.14,-4.33 10.71,-20.34 16.19,-24.34 4.66,-3.45 9.96,-2.5 13.94,-4.63 10.73,-5.84 22.35,-25.88 16.22,-46.38 -3.87,-12.91 -25.34,-27.07 -11.57,-42.88 20.5,2.2 47.6,22.41 50.98,42.88 1.32,7.99 -3.12,15.98 -2.36,24.35 0.43,4.79 4.87,9.95 6.96,16.22z"/>
  <path class="fil0" d="M5296.78 659.75c-2.62,5.93 -7.85,4.68 -12.73,8.13 -4.76,3.33 -10.39,13.93 -16.22,15.04 -9.33,1.78 -19.77,-9.12 -29.03,-6.94 -10.84,2.58 -4.49,10.95 -8.1,20.85 -9.49,-1.99 -25.1,-12.62 -25.5,-23.17 -0.24,-6.64 8.37,-10.76 10.46,-18.53 3.45,-13.27 -5.46,-19.91 -10.46,-32.45l1.16 -3.49c11.32,-2.37 33.57,18.97 59.13,23.16 16.49,2.75 30.32,1.27 31.29,17.4z"/>
  <path class="fil0" d="M5253.92 1836.19c1.16,9.63 -15.63,8.5 -17.38,2.26 0.32,-7.45 15.31,-9.79 17.38,-2.26z"/>
  <path class="fil0" d="M5172.75 562.42c11.49,6.06 39.27,19.8 19.69,32.44 -11.87,-4.39 -24.21,-19.37 -19.69,-32.44z"/>
  <path class="fil0" d="M5119.45 1785.21c13.26,-7.24 27.77,-23.08 50.98,-15.12 -5.09,14.45 -22.57,14.15 -33.6,20.88 -11.2,6.83 -20.64,18.37 -34.76,19.69l-4.65 -4.65c-0.05,-12.94 12.86,-15.87 22.03,-20.8z"/>
  <path class="fil0" d="M5088.16 1567.26c13.61,0.03 26.42,-4.16 35.89,1.16 -1.77,29 -46.7,6.97 -76.46,11.62 -6.34,0.97 -8.21,5.9 -15.09,3.45 0.38,-9.79 10.98,-19.7 22.01,-20.83 8.5,-0.88 21.2,4.58 33.65,4.6z"/>
  <path class="fil0" d="M5099.73 1603.18c1.3,16.04 -20.58,17.81 -26.66,30.18 9.63,14.72 13.38,35.3 24.35,48.64 -0.46,8.83 1.78,20.39 -3.5,24.35 -23.3,4.47 -35.86,-37.45 -45.19,-52.14 -17.84,3.36 -1.56,60.4 -25.48,53.3 -11.73,-3.47 0.16,-19.77 -2.34,-32.42 -2.15,-11.11 -13.05,-13.4 -13.91,-22.06 -0.67,-7.15 7.89,-14.72 10.44,-21.98 3.68,-10.55 1.34,-30.75 13.91,-31.32 6.18,-0.24 14.5,13.05 18.53,13.91 13.86,2.96 30.3,-14.09 49.85,-10.46z"/>
  <path class="fil0" d="M5056.85 1775.9c-4.28,8.77 -28.12,4.55 -30.11,-3.49 4.06,-9.1 28.12,-6.38 30.11,3.49z"/>
  <path class="fil0" d="M5034.79 1803.69l-4.58 4.65c-8.82,-2.8 -18.21,-4.93 -20.87,-13.88 6.51,-9.58 25.18,-1.67 25.45,9.23z"/>
  <path class="fil0" d="M5003.53 1774.71c-5.9,8.37 -26.29,-0.67 -33.6,8.13 -12.06,-0.33 -24.21,-0.46 -26.66,-10.44 3.47,-8.47 14.47,-2.64 23.16,-3.47 14.02,-1.24 33.39,-11.11 37.1,5.78z"/>
  <path class="fil0" d="M4840.11 2218.63c-0.08,-10.26 -6.51,-19.24 -8.15,-30.11 -0.56,-3.9 0.59,-8.98 0,-13.93 -0.72,-7.16 -4.28,-13.16 -3.44,-17.38 1.61,-7.67 10.55,-8.48 12.77,-15.07 3.64,-10.81 -4.44,-12.54 -4.65,-25.5 -0.16,-9.15 6.94,-13.61 11.6,-25.48 2.15,-5.51 2.23,-15.79 4.6,-19.69 3.04,-4.96 15.85,-9.15 20.87,-11.57 17.78,-8.72 32.01,-24.95 49.88,-27.85 4.52,-0.75 10.65,0.56 13.91,0 10.49,-1.85 23.7,-10.65 38.23,-13.91 14.07,-3.17 26.5,-1.99 37.1,-8.14 11.62,-6.7 28.06,-24.24 32.41,-34.76 5.3,-12.7 3.74,-23.47 13.91,-27.8 5.01,-2.1 9.88,0.17 15.07,-1.15 5.38,-1.37 16.89,-6.89 20.87,-10.41 8.08,-7.24 9.4,-19.1 18.54,-26.69 6.32,-5.22 18.24,-13.26 26.66,-17.35 4.95,-2.48 14.15,-5.09 18.51,-4.66 16.36,1.4 23.97,24.19 41.75,19.7 6.35,-1.59 12.81,-15.09 18.57,-23.17 8.37,-11.81 14.44,-27.76 28.97,-31.29 11.71,-2.88 24.83,4.5 31.26,-5.81 1.46,-7.31 -5.46,-11.65 0,-16.22 13.54,0.84 36.38,19.07 56.79,19.67 11,0.37 31.45,-11.97 33.63,4.68 0.97,7.34 -8.26,13.32 -10.44,20.85 -1.53,5.32 2.29,8.21 -1.15,13.91 -9.45,3.74 -19.42,5.67 -19.7,16.22 -0.35,13.24 18.7,19.42 30.11,26.68 7.85,4.96 14.37,12.54 18.56,15.04 3.58,2.1 9.23,3.1 11.59,4.63 7.53,4.9 12.83,15.95 23.22,16.25 11.76,0.27 23.51,-14.72 30.11,-29 7.69,-16.71 8.12,-36.96 11.56,-54.48 1.16,-5.86 5.33,-11.57 6.97,-17.38 4.47,-15.84 10.52,-37.26 24.32,-42.88 13.83,14.67 18.54,43.16 16.25,67.26 9.26,7.05 25.53,4.71 27.79,20.87 0.79,5.57 -2.77,12.73 -2.31,18.51 0.81,9.74 8.05,18.3 9.3,26.64 2.32,15.44 -2.58,28.19 4.61,39.44 9.04,14.15 26.77,13.7 38.25,29 -0.21,9.5 3.55,13.35 5.79,20.8 1.08,3.55 0.05,9.31 1.18,11.62 3.71,7.75 13.75,8.5 17.38,15.07 1.78,3.2 1.27,9.25 3.47,15.04 3.17,8.53 10.81,14.88 16.22,23.19 5.25,8.05 13.8,16.79 15.07,23.21 2.31,11.52 -6.06,19.45 -8.13,28.95 -2.5,11.55 0,26.39 -4.6,38.26 -5.38,13.91 -18.65,27.65 -29,45.17 -8.5,14.44 -20.04,30.7 -32.44,40.57 -7.34,5.86 -16.04,9.25 -23.19,15.12 -11.11,9.04 -20.21,20.77 -30.13,31.29 -10.44,11.04 -23.08,19.45 -31.32,28.93 -11.89,13.8 -17.81,36.02 -38.23,38.25 -11.94,1.34 -22.65,0.3 -33.6,4.68 -17.17,6.8 -28.54,19.37 -37.07,19.67 -8.96,0.3 -17.22,-10.49 -25.5,-11.57 -9.31,-1.18 -16.58,7.02 -30.14,6.91 -5.54,-0.02 -8.31,-3.28 -16.22,-5.76 -16.54,-5.27 -34.76,-5.06 -37.07,-23.18 -1.32,-9.88 6.29,-14.31 5.76,-23.19 -0.49,-8.85 -9.15,-11.06 -12.75,-18.54 2.29,-7.96 2.66,-18.05 -5.81,-23.19 -0.27,-7.21 1.56,-12.38 4.65,-16.22 -6.73,2.85 -15.58,4.63 -23.19,9.3 -8.45,5.09 -14.53,16.79 -24.3,15.04 -9.17,-3.2 -2.12,-12.32 -3.47,-19.71 -1.02,-5.6 -13.85,-29.57 -19.74,-33.61 -6.7,-4.55 -31.21,-13.77 -39.39,-15.06 -35.84,-5.6 -58.65,13.53 -86.95,16.25 -7.27,0.69 -15.18,-1.21 -21.99,0 -23.3,4.09 -49.26,22.57 -63.76,34.75 -23.99,2.37 -48.29,-4.92 -73.04,2.34 -24.56,7.16 -38.63,27.63 -76.46,21.99 -7.48,-6.46 -20.8,-9.63 -20.85,-20.85 -0.08,-8.85 13.07,-14.53 17.38,-20.86 4.55,-6.78 12.37,-22.7 12.72,-32.47 0.24,-7.69 -5.19,-16.92 -4.65,-26.61 0.43,-7.61 4.74,-15.71 4.65,-23.24z"/>
  <path class="fil0" d="M4820.42 1735.32c6.32,-0.88 11.03,-5.57 17.38,-5.75 13.51,-0.54 26.87,9.98 42.86,8.04 3.47,3.77 1.1,6.86 1.18,12.81 13.56,7.26 35.8,5.92 42.86,19.66 -10.14,10.79 -25.24,3.07 -38.26,1.16 -11.76,-1.67 -24.3,-0.86 -37.07,-2.31 -16.23,-1.88 -30.89,-10.84 -46.33,-12.73 -9.39,-1.18 -19,1.34 -27.84,0 -10.42,-1.62 -49.29,-16.3 -49.83,-26.63 -0.56,-10.71 17.49,-13.7 33.6,-11.62 20.8,2.74 34.74,21.09 61.45,17.37z"/>
  <path class="fil0" d="M4851.68 1655.37c-8.74,-2.45 -16.98,-1.11 -20.82,-3.5 -7.94,-4.87 -6.76,-18.75 -9.31,-26.63 -2.55,-8.02 -12.16,-12.27 -17.33,-23.19 -7.59,-15.82 -10.81,-51.19 9.23,-54.48 8.07,-1.34 16.39,4.87 22.01,3.5 11.19,-2.78 9.23,-17.22 18.56,-23.22 5.16,-3.33 14.67,-1.94 22.03,-4.63 7.59,-2.79 13.29,-9.98 18.54,-16.22 4.87,-5.78 8.66,-15.5 15.06,-19.67 7.21,-4.76 13.89,-4.87 19.7,-9.3 15.17,-11.6 15.69,-27.74 27.82,-41.73 10.3,-11.81 26.58,11.38 27.81,20.88 5.76,7.37 17.11,9.17 22.01,17.38 -6.81,20.39 -26.07,22.14 -22.01,51 0.67,4.68 3.87,13.43 6.97,19.72 3.31,6.78 13.1,14.07 12.73,18.51 -0.73,8.66 -18.19,8.29 -22.04,17.38 -3.49,8.43 0.27,8.99 -1.13,22.01 -4.9,9.47 -17.97,11.76 -22.03,23.22 -4.9,13.77 0.72,31.58 -10.44,41.72 -7.69,-0.4 -16.11,6.67 -25.45,5.76 -10.14,-0.92 -19.86,-14.85 -35.97,-15.07 -6.16,-0.02 -13.42,3.94 -19.72,3.5 -4.92,-0.37 -8.93,-4.92 -16.22,-6.94z"/>
  <path class="fil0" d="M4776.7 1629.57c29.46,0 29.46,45.76 0,45.76 -29.51,0 -29.51,-45.76 0,-45.76z"/>
  <path class="fil0" d="M4733.47 1624.06c3.63,0.48 16.44,18.32 16.22,23.19 -0.37,8.21 -12.64,7.72 -16.22,18.56 -5.44,16.65 2.45,35.51 -6.94,44.04 -5.28,3.2 -14.77,2.23 -23.17,2.29 -21.03,-14.77 -37.66,-32.4 -55.66,-52.14 -6.51,-7.18 -14.47,-13.4 -18.54,-20.88 -6.02,-11.08 -8.18,-23.24 -15.04,-33.6 -6.11,-9.09 -17.24,-15.6 -23.22,-25.48 -4.84,-8.15 -5.3,-18.83 -10.41,-26.66 -4.79,-7.31 -12.86,-10.44 -18.56,-16.27 -3.68,-3.77 -5.81,-9.72 -9.26,-13.89 -14.55,-17.46 -42.58,-26.55 -44.01,-52.16 5.95,-6.78 12.05,2.55 23.16,4.65 7.18,1.37 15.69,-0.56 20.85,1.16 10.52,3.55 17.78,19.99 28.98,28.98 6.27,5.06 14.42,8.53 20.82,13.9 6.89,5.76 11.92,13.99 17.41,17.36 7.53,4.65 18,7.66 27.82,13.96 13.39,8.5 37.34,17.35 40.56,34.78 0.79,4.31 -2.01,11.6 -1.15,15.02 1.59,6.08 9.28,8.74 13.91,13.91 5.7,6.45 6.86,16.14 15.06,17.4 8.15,2.29 8.53,-9.26 17.38,-8.12z"/>
  <path class="fil0" d="M4186.41 1380.66c9.98,3.28 43.29,43.74 33.6,66.1 -2.74,6.32 -14.23,14.5 -25.47,12.72 -22.95,-3.63 -18.57,-54.72 -11.6,-75.33l3.47 -3.49z"/>
  <path class="fil0" d="M3415.66 1967.18c1.02,-9.36 7.69,-24.65 15.09,-30.18 10.68,-7.94 25.13,-7.13 35.92,-12.75 8.9,-4.66 21.22,-12.32 27.81,-20.85 5.6,-7.24 5.9,-15.5 10.47,-20.88 3.09,-3.71 10.11,-4.74 13.85,-9.26 3.36,-4.09 2.64,-11.7 8.15,-16.19 16.09,-6.89 20.72,22.6 23.19,42.85 0.73,6.3 4.01,13.08 3.42,16.2 -1.64,9.26 -11.84,11.14 -15.04,17.46 -0.78,25.36 -10.76,47.46 -19.72,68.33 -7.69,18.03 -12.16,37.77 -18.53,53.32 -2.29,5.65 -7.16,10.07 -9.23,15.04 -8.37,19.72 -11.46,50.69 -26.69,59.13 -5.48,2.99 -26.63,8.18 -32.47,8.1 -14.18,-0.21 -26.47,-10.87 -30.1,-23.16 -1.97,-6.59 -0.03,-13.45 -1.19,-20.85 -1.4,-9.33 -6.91,-17.27 -5.78,-27.84 2.59,-23.6 25.56,-35.03 26.66,-54.48 0.83,-14.63 -7.43,-29.19 -5.81,-43.99z"/>
  <path class="fil0" d="M3679.93 188.05c27.26,6.32 40.04,-24.4 22.01,-41.75 -4.19,-4.03 -18.43,-5.62 -24.3,-15.04 -7.1,-11.32 -6.1,-26.48 -23.21,-23.19l-1.16 3.47c-1.61,25.32 35.3,31.72 34.76,52.16 -0.24,10.71 -11.57,11.84 -8.1,24.35zm489.11 -142.59c-12.75,0 -17.56,5.03 -25.48,9.28 -4.39,2.31 -13.26,3.61 -10.43,10.41 11.11,-1.32 33.25,-6.38 35.91,-19.69zm303.66 402.17c4.61,-14.76 -2.55,-29.64 -11.59,-39.41 -13.37,2.32 -3.71,16.25 -4.63,24.37 -1.32,11.49 -13.53,19.48 -12.75,31.29 -4.44,5.19 -12.06,7.24 -12.73,16.2 7.37,5.11 10.58,-3.98 16.2,-9.26 8.88,-8.31 22.44,-13.23 25.5,-23.19zm-1249.42 395.24c0.64,-12.43 -4.74,-21.82 -5.81,-39.39 -21.39,-12.91 -37.37,11.97 -59.11,9.26 -13.32,-1.67 -22.89,-17.22 -37.07,-15.04 -7.8,1.16 -11.68,11.25 -19.72,12.73 -16.57,3.04 -24.11,-13.29 -41.7,-6.95 -24.83,-18.91 -35.92,-49.72 -41.73,-84.64 -13.53,-17.73 -34.17,-3.31 -44.04,8.12 -6.1,-0.05 -13.69,-3.36 -15.06,3.47 -4.55,21.44 30.32,23.73 30.13,38.28 -0.14,9.42 -13.61,8.56 -19.72,15.02 -6.45,6.89 -2.15,13.02 -10.41,17.4 -22.84,2.72 -30.43,-9.74 -30.13,-30.13 -9.88,-14.99 -22.33,-25.88 -31.29,-38.23 -3.31,-4.57 -8.26,-11.7 -9.28,-18.59 -0.81,-5.41 2.59,-12.3 1.18,-18.51 -2.52,-11.06 -23.14,-19.42 -35.94,-25.48 -13.7,-6.57 -30.86,-12.73 -40.57,-20.88 -6.89,-5.81 -10.11,-15.87 -16.22,-19.69 -5.16,-3.26 -11.62,-2.59 -16.25,-5.81 -6.34,-4.44 -5.27,-11.84 -13.91,-13.94 -4.33,-1.59 -11.08,4.36 -13.88,8.15 -5.65,25.3 14.9,27.01 24.32,38.21 6.46,7.72 9.69,19.32 16.25,24.34 6.99,5.44 16.49,4.42 25.48,8.13 6.22,2.55 10.25,10.27 16.22,13.91 11.06,6.73 28.84,7.91 30.13,20.85 -6.86,4.68 -22.47,-6.81 -27.79,4.65 -1.37,7.53 5.97,11.41 5.81,18.54 -0.33,11.4 -13,23.92 -24.37,22.05 -1.14,-6.8 6.05,-12.37 5.81,-19.74 -0.51,-14.74 -30.16,-37.23 -45.2,-44.01 -7.05,-3.2 -15.63,-3.36 -22.03,-6.97 -11.41,-6.41 -31.32,-22.14 -38.26,-31.29 -8.28,-10.97 -15.39,-31.29 -33.6,-30.13 -7.43,0.46 -13.58,7.27 -19.69,10.44 -5.57,2.85 -11.71,5.46 -17.41,9.23 -6.75,4.49 -12.24,9.04 -18.53,9.28 -14.56,0.62 -26.91,-10.79 -39.39,-8.1 -4.22,0.92 -7.75,4.68 -12.78,9.28 -0.16,6.78 2.04,11.09 1.18,18.51 -3.79,6.54 -14.99,6.14 -23.19,10.47 -12,6.32 -22.67,19.32 -32.47,28.97 -6.26,6.22 -11.94,11.32 -12.75,16.22 -0.62,3.82 3.26,11.09 2.34,16.23 -1.02,5.59 -11.52,17.19 -18.53,22 -4.12,2.83 -9.56,3.23 -13.91,5.81 -9.15,5.41 -13.21,12.46 -20.88,13.91 -20.26,3.79 -57.06,-4.06 -56.76,17.38 0.16,14.34 19.53,14.42 31.28,13.88 16.39,-0.62 30.32,3.5 39.39,1.19 6.27,-1.59 13.1,-8.59 19.69,-11.6 4.17,-1.85 8.45,-1.88 11.6,-3.47 6.94,-3.47 10.84,-9.12 16.25,-11.59 10.6,-4.84 30.31,-8.61 41.7,-9.29 15.63,-0.88 31.96,1.65 52.16,0 7.18,-0.53 14.31,-5.16 22.03,-5.78 12.62,-1 29.22,4.98 39.39,4.65 7.05,-0.24 14.93,-7.1 23.19,-6.96 9.33,0.13 19.16,6.78 20.85,12.75 0.97,3.42 -1.97,8.79 -1.16,13.91 1.35,8.42 8.59,11.91 8.13,17.38 -0.59,7.24 -18.7,16.95 -16.23,25.5 1.62,5.49 14.56,11.22 20.85,15.06 6.6,4.01 17.71,9.58 25.51,10.42 6.54,0.75 12.35,-1.81 18.56,-1.16 9.98,1.13 26.12,7.15 32.44,11.59 10.87,7.67 9.36,19.97 22.01,24.33 5.38,1.91 15.12,0.83 22.01,2.34 16.89,3.68 29.41,17.67 41.75,16.22 19.39,-2.23 10.55,-20.53 12.75,-33.58 4.95,-29.62 62.74,-28.25 74.17,-8.15 8.45,2.26 15.85,0.35 25.48,3.5 5.57,1.8 9.72,7.88 15.07,9.28 4.03,1.02 9.92,-0.62 15.06,0 22.22,2.5 42.37,19.05 61.45,16.2 12.1,-1.78 20.9,-13.16 32.42,-13.89 22.16,-1.4 36.37,16.5 60.29,8.08 17.59,-6.16 13.7,-24.4 19.7,-42.86 4.19,-12.86 12.26,-21.6 12.75,-31.29zm74.17 -136.75c31.42,-5.67 17.08,-32.25 1.16,-41.72 -12.06,-7.21 -26.5,-13.45 -40.57,-22.06 -8.15,-4.95 -39.2,-14.37 -39.39,-24.3 -0.24,-10.89 23.08,-14.47 13.91,-33.62 -15.88,-3.85 -53.59,2.2 -50.98,19.69 1.48,10.11 13.45,4.52 16.19,15.07 -11.35,4.06 -25.18,14.63 -37.07,12.77 -14.2,-2.23 -17.86,-19.69 -25.48,-30.15 -11.06,0.34 -18.32,-10.68 -31.31,-9.28 -13.61,1.5 -20.85,21.28 -27.82,31.31 -3.68,5.27 -9.58,7.99 -11.59,12.75 -1.21,2.85 0.11,7.43 -1.16,11.57 -3.95,12.89 -15.12,17.59 -13.93,28.97 1.1,10.07 12,14.56 12.77,23.19 -0.78,8.91 -15.04,4.28 -13.9,15.07 20.74,17.14 21.89,-8.07 32.47,-11.57 8.47,-2.85 25.13,2.34 35.89,0 8.69,-1.94 15.55,-10.2 25.5,-13.93 6.08,-2.29 13.61,-4.28 22.03,-4.66 36.89,-1.5 60.7,22.49 92.74,23.22 10.57,0.21 29.57,-0.35 40.54,-2.32zm272.4 83.43c5.78,-40.2 -25.53,-43.21 -31.32,-71.86 2.67,0.35 1.3,-3.33 3.5,-3.49 7.61,-3.64 19.13,5.86 23.16,-3.45 0.05,-13.72 -17.35,-23.97 -34.78,-17.38 -5.03,-3.44 -5.7,-11.27 -6.94,-18.53 -13.13,-7.83 -45.66,-24.91 -45.2,-40.57 0.37,-12.89 16.98,-20.1 35.92,-19.72 7.98,-6.06 2.85,-24.67 -4.61,-28.98 -29.99,-6.54 -45.95,-2.12 -64.94,11.6 -9.09,6.59 -19.23,11.13 -24.34,15.06 -4.68,3.64 -10.93,13.56 -10.42,18.54 0.73,7.15 11,11.41 15.1,20.88 2.07,4.9 1.61,10.97 3.44,15.06 5.09,11.2 18.05,18.4 27.82,27.79 6.91,6.65 26.28,21.04 26.66,28.98 0.37,6.62 -5.95,8.1 -8.07,15.09 -2.18,6.86 -4.71,23.03 -3.48,28.97 2.53,12.73 15.72,13.16 27.77,18.54 11.97,5.35 23.51,14.77 35.94,15.06 13.26,0.35 27.36,-3.9 34.79,-11.59zm85.76 -149.5c18.78,-3.63 0.21,-33.65 -13.93,-30.16 -18.46,4.63 1.13,32.61 13.93,30.16zm270.03 -47.53c-4.35,-8.75 -16.89,2.58 -11.56,10.46 7.85,0.48 10.65,-4.06 11.56,-10.46zm-790.42 1150.93c4.58,-8.5 -7.31,-14.05 -9.3,-23.19 -2.29,-10.71 2.61,-23.24 -6.94,-28.97l-3.48 0c-8.39,18.99 3.5,50.33 19.72,52.16zm70.68 -119.4c3.93,-8.02 13.1,-16.52 11.57,-26.64 -3.34,-22.35 -45.09,-11.32 -49.8,4.63 -3.2,10.73 1.88,19.23 -2.34,30.13 4.55,8.58 16.01,10.28 30.13,9.26 7.8,-3.45 6.86,-10.01 10.44,-17.38zm16.22 242.26c5.35,-8.53 12.11,-32.47 0,-38.25l-2.29 0c-5.19,9.6 -10.71,32.85 2.29,38.25zm-640.92 -414.96c-33.39,-4.9 -67.55,8.58 -90.42,18.51 -13.19,5.78 -26.64,14.55 -38.23,15.09 -11.03,0.54 -21.85,-5.84 -32.44,-6.94 -13.83,-1.43 -31.53,-0.11 -45.23,2.31 -13.32,2.37 -25.34,11.89 -37.1,12.75 -22.46,1.7 -43.82,-20.26 -57.92,-31.28 -8.63,-6.73 -17.4,-12.27 -25.5,-18.54 -8.66,-6.78 -19.88,-10.87 -26.66,-17.38 -9.12,-8.85 -9.12,-24.21 -13.91,-35.94 -5.62,-13.83 -22.84,-23.97 -35.92,-37.07 -9.81,-9.82 -32.34,-24.49 -34.78,-37.1 -1.24,-6.43 2.75,-13.89 2.31,-20.88 -0.62,-10.14 -8.26,-15.9 -8.1,-23.16 0.22,-10.2 12.22,-18.08 15.07,-26.66 1.48,-4.39 0.75,-10.6 2.31,-16.22 3.23,-11.76 11.04,-18.73 9.29,-35.95 -0.7,-6.86 -6.6,-13.1 -6.97,-22 -0.24,-6.11 4,-9.5 3.47,-15.09 -0.88,-9.88 -13.72,-11.81 -15.07,-23.17 -1.34,-11.7 11.22,-21.44 18.57,-34.76 3.3,-5.99 5.11,-15.12 8.09,-19.69 6.49,-9.85 17.09,-14.63 22.04,-24.37 3.63,-7.16 4.81,-17.78 8.1,-23.17 4.27,-6.91 12.77,-10.62 20.87,-19.69 6.59,-7.43 9.28,-16.38 13.91,-19.72 5.81,-4.19 14.53,-5.22 20.87,-8.1 21.44,-9.76 37.13,-22.38 47.49,-42.88 -3.15,-18.67 1.62,-26.55 9.28,-39.41 7.08,-11.89 12.27,-23.3 24.35,-30.13 14.5,-8.21 28.11,-8.96 38.23,-24.32 5.06,-7.73 12.67,-21.02 12.75,-29 0.14,-11.46 -11.76,-26.15 -22.01,-27.82 -10.46,-1.67 -26.58,7.96 -32.44,-3.47 -1.88,-3.63 0.69,-12.19 0,-16.22 -1.35,-7.59 -7.85,-12.97 -8.1,-18.54 -0.56,-10.9 10.71,-22.22 13.88,-34.78 4.33,-17.06 0.16,-30.16 -1.16,-49.83 16.2,-25.53 52.19,-12.89 88.08,-10.46 5.38,0.4 11.57,-1.29 17.38,-1.13 21.28,0.51 38.05,6.91 45.2,-11.6 2.69,-6.94 5.09,-32.85 3.5,-39.41 -1.91,-7.75 -17.14,-27.87 -24.35,-32.42 -11.52,-7.34 -28.19,-4.14 -34.78,-17.4 5.35,-22.9 30.99,-3.85 46.35,-9.29 7.85,-2.77 6.97,-16.35 13.93,-18.53 4.77,-1.51 10.81,4.76 17.38,4.65 5.63,-0.11 25.99,-10.33 31.29,-13.93 7.43,-5 9.69,-15.39 16.22,-19.7 4.42,-2.91 10.25,-2.55 15.07,-4.62 9.88,-4.22 22.33,-12.89 29,-20.88 9.55,-11.46 13.86,-25.69 25.48,-27.82 15.55,-2.82 50.68,3.1 53.32,-13.9 2.47,-16.2 -14.26,-28.93 -8.1,-46.36 4.84,-13.8 17.24,-11.38 34.76,-19.69 8.44,5.97 5.99,23.14 6.94,33.63 10.76,0.08 32.69,-3.23 34.76,-12.78 2.61,-11.92 -15.69,-24.08 -19.7,-31.29 -4.33,-7.8 -5.25,-21.55 -13.9,-23.16 -17.62,-3.39 -34.79,24.32 -56.8,24.32 -14.47,0 -29.78,-11.16 -33.6,-22.01 -2.18,-6.22 -0.18,-12.08 -1.18,-18.56 -1.4,-9.47 -7.08,-19.32 -4.6,-32.45 8.85,-15.2 29.29,-17.65 44.04,-25.5 5.57,-2.99 10.04,-9.28 16.22,-11.59 10.39,-3.82 25.75,0.02 35.92,-5.81 6.45,-3.64 4.62,-9.98 9.28,-17.38 2.91,-4.66 9.98,-7.37 13.9,-12.73 2.72,-3.71 3.04,-9.33 5.79,-12.75 10.06,-12.54 28.46,-17.17 35.92,-30.13 3.3,-5.7 -5.7,-7.89 -3.45,-16.23 3.74,-8.09 18.19,-2.15 26.63,-3.49 11.55,-1.78 22.2,-15.79 34.76,-18.51 13.16,-2.85 27.23,-1.13 39.44,-5.79 7.29,-2.85 13.99,-9.44 20.85,-10.46 2.45,-0.37 9.28,1.32 12.75,1.16 4.42,-0.17 9.17,-2.88 15.07,-3.47 8.53,-0.86 19.07,2.07 30.13,2.31 18.32,0.4 35.75,-5.51 51.01,1.16 7.96,3.49 7.07,12.54 17.35,16.24 5.19,1.86 12.05,-0.75 19.72,0 11.36,1.05 23.19,8.91 38.25,10.42 5.35,0.53 10.87,-0.68 16.2,0 16.57,2.01 34.79,10.76 51.03,16.22 13.56,4.6 42.35,10.3 42.86,23.19 0.65,15.23 -25.02,19.67 -35.94,19.67 -18.21,0 -42.37,-10.63 -61.39,-4.61 0.29,26.2 28.6,46.09 54.47,42.86 2.26,-12.32 -14.63,-5.46 -12.77,-17.35 11.57,-8.75 25.4,5.83 41.75,3.47 6.38,-1.75 5.27,-10.92 6.94,-17.41 13.77,-8.34 31.02,-20.63 52.14,-11.57l4.65 -4.62c1.37,-12.76 -13.91,-19.37 -5.78,-31.32 4,-8.23 25.64,-5.41 28.97,1.19 1.64,7.82 -5.38,6.96 -4.68,13.88 4.12,9.25 13.56,10.73 18.56,10.46 11.39,-0.65 13.64,-10.78 24.37,-16.27 4.31,-2.18 10.68,-2.39 16.2,-4.6 6.57,-2.62 12.13,-7.86 17.38,-9.28 3.87,-1.03 9.69,0 15.09,-1.16 6.83,-1.48 14.07,-6.99 19.7,-6.94 6.99,0 11.97,8.07 20.85,9.28 4.84,0.62 10.33,-2.78 17.38,-3.5 5.7,-0.62 11.56,0.67 16.22,0 11.08,-1.62 18.67,-7.43 27.84,-6.97 6.46,0.38 17.54,9.07 22.01,4.66 7.47,-7.43 -10.01,-12.97 -4.6,-19.7 17.75,1.32 36.64,0.92 54.47,3.45 26.48,3.79 51.42,16.89 75.31,17.4 -2.26,-16.11 -20.69,-11.49 -28.98,-18.53 -2.53,-2.18 -12.89,-19.13 -12.73,-24.35 0.03,-2.61 13.1,-24.91 16.23,-27.82 10.2,-9.6 43.71,-9.55 53.27,3.48 6.56,8.9 4.41,22.3 13.91,22.03 8.21,-0.24 12.54,-20.39 22.03,-20.88 7.82,-0.4 11.81,12.92 19.69,12.75 9.61,-0.18 16.27,-18.05 29,-18.53 6.83,-0.27 9.12,3.52 19.67,4.63 7.26,-4.66 -2.39,-10.82 1.18,-17.41 12.97,-9.39 42.56,-2.26 59.11,-8.1 4.62,-5.48 -5.92,-9.39 -1.16,-15.06 14.28,-9.98 38.28,-10.9 62.6,-15.07 14.88,-2.53 28.9,-12.86 40.54,-13.91 12.16,-1.08 23.79,7.16 34.76,6.97 6.67,-0.11 14.45,-2.13 20.88,-4.63 6.51,-2.55 10.97,-8.85 17.4,-10.46 10.17,-2.48 23.03,1.21 34.79,0 12.43,-1.27 23.4,-6.06 32.42,-4.63 8.42,1.37 15.2,10.36 23.19,11.62 24.4,3.79 49.61,-3.68 71.83,2.31 3.98,1.08 7.99,5.19 12.78,6.97 14.87,5.44 25.04,3.71 27.81,22.01 11.73,4.14 18.59,14.88 32.45,18.53 9.23,2.43 18.56,-1.18 28.97,-1.18 13.7,0 31.21,0.54 42.86,2.32 6.67,1.04 12.13,5.92 18.59,6.96 4.65,0.79 10.87,-0.48 16.19,0 7.27,0.7 13.78,3.69 19.7,3.5 12.16,-0.4 21.36,-11.22 31.29,-12.78 5.32,-0.81 12.42,1.91 17.37,2.32 19.54,1.64 42.05,-2.53 57.95,1.18 8.53,1.99 23.08,11.36 32.47,18.54 6.81,5.19 10.95,13.48 17.36,17.37 6.11,3.69 21.57,10.31 27.87,9.29 7.4,-1.19 7.72,-9.42 15.04,-12.76 23,-5.11 63.79,7.34 82.29,-1.18 7.15,-3.28 5.76,-10.87 11.59,-15.04 34.76,-1.72 69.41,1.43 101.99,2.32 11.44,0.32 23.28,-2.94 33.63,-1.16 11.49,1.99 19.83,13.51 31.26,17.38 7.62,2.58 21.01,1.24 32.47,3.49 7.67,1.48 13.99,6.14 19.7,6.95 12.37,1.75 24.18,-1.4 35.94,-2.32 26.58,-2.15 60.74,-3.55 86.92,6.97 13.93,5.6 19.8,16.89 34.76,18.51 21.41,2.36 54.59,-1.75 76.51,0 5.22,0.46 10.11,2.61 13.88,2.31 7.37,-0.51 11.84,-6.75 20.88,-6.91 11.46,-0.27 29.76,17.89 46.38,15.04 7.18,-4.84 -5.76,-11.62 1.13,-16.23 6.51,-5.43 15.44,-0.05 25.5,0 5.49,0.06 12.22,-2.77 17.38,-2.31 12.75,1.13 24.83,12.54 40.57,16.2 12.51,2.96 29.67,4.03 45.22,2.34 11.14,-1.21 20.67,-4.95 31.29,-3.47 5.11,0.72 9.69,4.41 15.04,5.81 4.95,1.24 9.79,0.05 13.91,1.13 3.87,1.04 7.69,4.68 11.62,5.81 21.55,6.16 50.23,9.2 73.01,16.22 13.4,4.14 27.12,12.45 38.26,12.73 5.48,0.18 10.36,-2.37 17.38,-2.29 35,0.21 76.19,14.79 72.96,47.53 -40.95,8.99 -75.22,-28.22 -118.21,-17.4 -6.83,1.75 -14.44,9.26 -13.86,16.22 1.59,20.21 52.46,18.49 56.74,38.26 -8.34,6.24 -17.43,0.32 -24.32,1.18 -10.44,1.18 -28.06,12.24 -34.78,18.51 -7.83,7.34 -14.69,26.18 -23.17,27.82 -10.36,2.01 -26.17,-10.23 -41.72,-6.97 -5.73,1.21 -11.2,8.31 -16.22,9.28 -12.78,2.45 -29.06,-6.97 -37.05,8.13 4.19,10.57 1.64,25.34 10.41,31.28 5.65,3.87 12.73,0.86 19.69,3.47 8.15,3.04 12.64,12.97 19.67,18.54 5.79,4.55 11.92,4.68 15.09,10.44 0.75,8.53 -3.39,9.49 -2.31,15.09 1.8,9.71 17,11.89 17.38,18.51 0.53,8.4 -9.58,6.59 -11.57,15.07 -0.72,5.41 6.24,6.83 6.94,13.9 0.46,4.74 -3.82,9.72 -3.47,15.1 0.51,7.72 6.59,12.86 5.78,19.66 -0.67,5.86 -5.78,10.44 -10.46,12.78 -22.17,-14.26 -42.16,-33.9 -66.05,-52.16 -24.43,-18.73 -63.19,-41.73 -67.2,-81.12 -0.14,-6.05 12.78,-10.78 15.07,-19.71 0.94,-3.64 -1.46,-8.85 -1.16,-13.89 0.83,-13.61 12.08,-26.71 11.62,-34.76 -0.56,-8.88 -17.08,-25.36 -25.53,-27.84 -6.73,3.52 -0.08,10.55 -1.16,16.22 -1.34,7.02 -9.81,15.55 -17.38,16.25 -21.93,1.88 -24.37,-28.28 -59.13,-19.72 -8.98,2.23 -21.63,15.77 -18.51,32.45 0.95,5.09 14.88,10.52 13.89,17.4 -0.97,6.67 -31.59,8.64 -38.26,8.1 -18.7,-1.48 -28.3,-15.5 -45.17,-15.06 -8.29,0.21 -15.55,6.94 -22.03,8.09 -36.51,6.67 -90.69,-17.97 -103.12,13.91 -1.81,4.49 -0.81,10.39 -2.34,15.07 -2.26,6.7 -7.59,11.97 -9.28,16.22 -1.43,3.58 -1.19,10.65 -3.5,16.25 -2.1,5.03 -24.02,24.86 -4.63,30.13 4.63,1.24 6.81,-1.99 12.78,-1.16 9.95,1.35 26.52,17.33 38.2,17.36 7.02,0.02 16.71,-7.83 22.04,-8.08 10.73,-0.53 18.48,6.41 26.63,10.39 7.83,3.85 19.72,11.92 25.56,11.6 10.92,-0.54 5.7,-8.13 16.19,-11.6 20.04,5.95 29.44,27.2 48.67,44.07 6.97,6.1 17.27,11.32 26.69,19.71 5.22,4.66 21.33,17.22 22,23.17 0.62,5.54 -4.49,7.91 -5.81,12.75 -1.88,7.05 2.53,12.24 -2.31,17.38 -18.49,-6.83 -22.65,-25.07 -35.94,-40.57 -4.9,-5.76 -9.88,-12.61 -17.36,-20.85 -3.39,-3.71 -15.68,-16.76 -23.21,-13.91 -14.56,5.54 7.99,27.63 11.62,32.45 7.69,10.22 17.89,23.99 18.56,34.78 0.43,6.92 -4.52,19.45 -4.65,31.26 -0.08,8.02 2.01,15.28 1.18,22.04 -0.88,6.8 -5.7,14.55 -8.15,22.03 -2.71,8.47 -3.33,18.65 -5.76,24.32 -4.52,10.46 -19.67,22.76 -30.18,23.19 -9.63,0.4 -13.75,-7.43 -23.16,-6.94 -14.26,0.67 -16.9,13.83 -25.48,24.32 0.72,11.41 4.3,15.34 2.31,23.16 -3.12,12.3 -20.23,14.45 -19.69,26.69 0.46,11.32 15.63,13.53 23.16,18.54 10.36,6.89 28.44,22.19 38.26,34.78 6.45,8.26 15.73,23.67 15.09,32.42 -0.89,11.49 -33.9,27.44 -47.6,23.16 -12.94,-3.98 -8.5,-16.36 -11.54,-27.79 -2.37,-8.77 -9.23,-12.56 -12.73,-19.69 -1.85,-3.74 -0.99,-9.69 -3.52,-13.91 -6.97,-11.78 -19.18,-5.35 -33.63,-12.75 -9.44,-4.84 -6.7,-15.07 -10.41,-24.35 -4.98,-12.48 -25.99,-18.35 -42.86,-15.04 -12.4,2.39 -16.25,12.8 -27.81,15.04 -17.01,-10.06 3.49,-34.89 -17.38,-37.1 -16.01,-1.64 -26.58,22.98 -35.95,30.18 -6.34,4.79 -17.81,5.79 -18.53,12.71 -1.37,12.8 13.51,10.2 25.48,15.09 10.84,4.44 12.1,16.73 22,17.38 8.29,0.56 13.8,-8.56 22.04,-9.26 14.23,-1.27 25.8,5.14 34.76,10.41 -5.79,14.07 -36.99,24.35 -37.08,42.89 -0.05,10.73 12.46,12.59 22.03,19.69 8.08,6 18.73,22.95 30.11,34.76 4.93,5.11 12.89,8.47 15.12,11.62 5.35,7.64 4.49,17 10.38,22.01 1,6.38 -2.88,7.91 -2.31,13.93 2.88,8.34 15.69,6.75 18.56,15.06 -2.36,20 5.95,38.8 -10.44,46.36 -7.53,35.84 -16.06,63.89 -40.54,83.45 -22.03,17.52 -51.14,22.68 -77.7,31.29 -6.89,2.2 -12.38,9.47 -18.51,11.57 -15.42,5.25 -42.89,2.07 -44.02,20.87 -0.64,9.28 11.76,14.88 12.73,24.32 1.45,14.53 -11.55,29.11 -20.88,30.14 -6.73,0.75 -21.25,-3.94 -22.03,-16.23 -0.92,-13.83 17.14,-19.48 18.56,-27.79 2.45,-14.77 -12.75,-29.14 -30.13,-27.84 -15.31,1.16 -50.12,31.91 -50.98,48.69 -0.67,12.57 24.88,38.69 33.6,46.38 32.56,28.65 67.1,45.87 61.4,115.87 -8.13,17.73 -28.9,21.52 -45.18,31.29 -12.4,7.45 -18.56,30.5 -39.41,32.47 -8.39,-2.88 -3.49,-15.95 -5.81,-22.01 -3.14,-8.34 -19.77,-12.4 -30.1,-20.87 -8.5,-6.97 -12.08,-17.94 -18.56,-24.37 -8.13,-7.99 -20.23,-9.63 -30.14,-15.05 -6.24,-3.39 -11.11,-15.36 -17.4,-15.06 -10.23,0.43 -6.67,10.25 -9.26,26.63 -2.55,16.14 -14.34,28.52 -10.43,47.54 1.64,7.8 11.35,14.07 16.19,22.01 8.05,13.16 9.17,28.46 17.41,35.94 5.43,4.95 14.69,6.02 20.87,10.41 12.27,8.8 33.9,27.82 38.23,38.28 5.03,12.19 0.19,26.55 3.5,39.41 3.84,14.83 23.27,25.46 11.59,40.57 -11.08,-2.07 -20.77,-9.33 -30.15,-15.09 -15.93,-9.85 -23.24,-18.35 -33.6,-34.76 -3.04,-4.81 -7.53,-9.49 -9.29,-13.91 -4.03,-10.38 -3.14,-22.17 -6.91,-34.78 -3.26,-10.84 -15.85,-28 -25.53,-37.07 -8.15,-7.69 -22.57,-12.16 -23.19,-23.19 -0.83,-15.55 5.27,-33.85 4.65,-52.17 -0.13,-3.95 -2.82,-7.93 -3.44,-12.72 -1.24,-8.91 0.86,-19.77 -1.21,-27.85 -1.91,-7.4 -7.29,-14.09 -10.41,-20.82 -3.1,-6.7 -6.27,-13.4 -9.26,-22.06 -4.71,-13.4 -9.98,-39.25 -20.87,-40.57 -11.6,-1.37 -23.08,21.8 -38.23,22.06 -7.8,0.14 -18.17,-6.13 -19.7,-13.93 -1.48,-7.13 3.64,-14.29 3.45,-22.01 -0.43,-15.53 -11.43,-21.55 -19.69,-32.47 -3.34,-4.42 -4.22,-10.63 -6.97,-13.91 -5.28,-6.27 -15.34,-9.79 -22.03,-16.2 -6.32,-6.15 -13.29,-14.99 -16.23,-20.87 -4.49,-9.07 -5.92,-20.83 -12.72,-22.03 -6.54,-1.14 -14.1,8.23 -20.88,10.46 -7.05,2.29 -24.4,5.3 -31.29,5.76 -23.27,1.64 -42.16,-4.58 -39.41,23.21 -3.61,12.46 -16.79,12.59 -25.5,18.51 -11.09,7.53 -19.18,22.68 -31.29,34.76 -5.9,5.92 -14.39,9.63 -19.69,15.09 -4.42,4.58 -5.79,11.87 -10.44,16.23 -12.35,11.7 -30.91,12.7 -39.39,28.97 -0.48,19.26 9.12,33.85 6.94,52.14 -0.99,8.34 -7.24,15.74 -8.12,24.35 -0.72,7.4 3.01,15.31 1.18,23.16 -1.02,4.25 -5.7,6.46 -9.3,11.59 -3.2,4.66 -4.49,10.79 -6.89,13.94 -3.93,4.97 -10.33,8.47 -13.96,12.75 -5.9,6.97 -7.13,11.94 -12.76,12.75 -25.36,3.66 -31.63,-44.66 -42.85,-64.91 -5.19,-9.31 -15.71,-17.71 -20.88,-28.98 -5.94,-13 -7.75,-29.3 -16.25,-44.04 -7.18,-12.59 -17.14,-25.2 -22,-38.25 -4.12,-11.04 -7.69,-24.86 -11.57,-37.1 -4.15,-12.91 -8.61,-29.19 -9.28,-39.39 -0.97,-15.04 2.88,-24.32 -9.31,-30.13 -11.16,2.64 -16.14,13.91 -28.95,13.91 -12.38,0 -45.57,-21.44 -35.89,-40.59 -8.12,-11.46 -28.49,-17.76 -44.09,-31.27 -8.88,-7.77 -16.92,-26.26 -32.42,-27.79 -4.28,-0.46 -9.82,1.94 -13.91,2.29 -9.81,0.86 -27.19,-0.88 -38.28,0 -13.88,1.13 -31.07,4.25 -48.67,2.34 -11.32,-1.24 -25.4,-3.45 -37.07,-4.63 -14.85,-1.53 -34.57,-5.06 -42.86,-12.78 -5.13,-4.76 -7.21,-19.93 -16.27,-22 -10.73,-2.5 -16.66,5.83 -26.63,8.1 -21.25,4.87 -38.96,-4.36 -53.32,-13.91 -10.17,-6.76 -19.48,-10.25 -26.66,-15.07 -17.6,-11.78 -20.77,-47.24 -47.54,-47.51 -9.28,-0.11 -24.11,5.73 -25.48,16.22 -0.92,7.4 8.8,21.07 12.75,26.66 13,18.33 36.89,25.21 44.04,49.83 4.82,1.85 14.58,-4.22 19.72,1.15 4.47,10.6 -0.08,30.19 10.41,34.79 48.16,7.96 61.93,-18.46 83.46,-37.1 12.51,8.18 8.37,15.31 12.75,24.32 4.44,9.26 11.41,16.52 19.69,19.75 5.81,2.2 13.29,0.16 22.03,3.44 5.46,2.07 28.33,23.73 29,31.31 0.59,6.84 -15.01,30.02 -19.74,35.92 -4.6,5.76 -11.71,8.72 -13.91,13.88 -1.64,4.04 -1.11,12.54 -2.31,15.1 -2.16,4.62 -12.54,10.65 -18.54,16.19 -6.35,5.92 -13.72,10.52 -19.72,15.09 -7.31,5.63 -11.84,13.35 -19.69,16.23 -15.42,5.67 -30.08,3.28 -42.86,11.59 -8.4,5.44 -8.42,17.73 -18.54,24.32 -10.6,6.89 -28.7,6.94 -44.09,13.94 -9.85,4.49 -15.76,13.18 -24.27,16.24 -3.49,1.19 -7.85,0.14 -11.65,1.16 -7.69,1.97 -14.79,7.43 -22.01,9.23 -5.73,1.48 -11.78,0.75 -17.4,2.34 -17.84,5.16 -34.2,23.3 -52.14,12.75 -8.47,-19.53 -9.85,-44.12 -19.72,-61.42 -5,-8.88 -14.93,-11.59 -18.51,-20.87 -0.51,-7.46 8.47,-5.41 9.23,-11.57 -2.94,-12.51 -14.77,-18.38 -21.98,-29.03 -3.55,-5.16 -5.19,-12.54 -9.28,-18.51 -13.83,-20.1 -41.08,-30.56 -46.38,-55.63 -1.43,-6.81 0.24,-12.19 -1.14,-17.38 -2.28,-8.59 -8.09,-17.59 -13.93,-24.32 -4.41,-5.17 -13.45,-8.66 -18.51,-16.25 -3.39,-5 -4.12,-12.06 -6.99,-17.38 -11.52,-21.52 -28.19,-40.52 -46.36,-55.66 -9.44,1.37 -19.61,2.04 -24.32,8.15 4.71,15.17 11.95,27.84 19.7,40.57 7.1,11.57 17.16,24.02 22.03,37.07 1.8,4.84 1.48,11.16 3.47,16.22 7.29,18.38 30.21,24.03 34.76,45.22 3.1,14.18 -0.67,24.03 3.49,38.21 3.99,13.64 24.11,21.71 32.47,34.78 6.76,10.68 6.84,25.78 11.57,35.94 6.95,14.88 26.34,21.31 40.57,31.29 12.75,8.98 21.9,22.84 32.45,32.45 6.18,5.62 14.69,6.64 16.22,12.77 1.97,7.86 -3.28,10.47 -4.65,17.36 8.9,9.28 17.56,26.39 32.44,27.82 6.14,0.59 13.86,-5.6 23.19,-6.95 4.71,-0.69 9.98,0.73 13.91,0 6.18,-1.13 11.54,-6.64 18.59,-8.12 11.84,-2.55 25.53,-1.53 40.52,-3.47 14.18,-1.86 23.94,-13.83 34.78,-10.44 11.92,13.1 3.36,27.93 0,40.57 -1.16,4.44 -1.16,9.04 -2.29,12.78 -6.24,20.61 -22.65,35.91 -30.18,54.45 -2.31,5.67 -1.88,12.67 -4.58,18.54 -8.63,18.56 -26.63,36.91 -40.59,52.16 -7.89,8.56 -14.83,16.3 -23.19,23.14 -8.31,6.86 -18.49,10.6 -27.84,17.4 -18.54,13.59 -37.86,33.04 -50.98,51.01 -5.06,6.97 -7.48,14.99 -12.76,20.88 -7.56,8.42 -19.2,12.56 -25.47,20.85 -4.96,6.54 -8.24,18.37 -13.91,30.13 -6.38,13.23 -19.7,22.22 -17.38,40.57 0.86,7.02 7.15,11.38 9.25,18.53 3.61,12.35 0.86,22.76 -1.15,35.92 6.56,15.9 11.27,33.57 23.19,44.04 1.43,23.46 -1.94,46.21 0,66.07 1.2,12.64 6.13,21.98 1.15,33.6 -4.39,10.28 -21.22,28.33 -31.29,34.76 -10.94,7.08 -27.68,8.91 -39.41,17.43 -8.15,5.9 -14.93,16.27 -23.19,23.22 -13.67,11.38 -32.39,22 -33.6,33.57 -0.7,6.65 5.25,16.73 6.94,23.17 4.52,17.11 8.93,41.72 1.18,60.26 -8.42,20.04 -50.9,15.87 -55.63,37.07 -1.45,6.46 2.82,11.6 2.29,18.56 -0.4,5.92 -8.15,27.23 -11.57,33.6 -5.14,9.58 -16.76,13.91 -24.35,22.04 -9.46,10.27 -14.25,25.15 -24.34,35.91 -13.64,14.69 -32.13,30.16 -49.83,42.89 -15.41,11.11 -43.04,22.65 -67.2,24.32 -14.07,0.99 -29.16,-3.31 -44.04,-1.13 -5.44,0.78 -11.36,5.78 -18.56,6.94 -4.17,0.69 -8.48,-0.73 -12.73,0 -7.29,1.24 -14.12,7.05 -20.87,6.96 -15.02,-0.18 -34.3,-18.07 -34.76,-35.91 -0.17,-6.89 5.89,-13.4 5.78,-19.72 -0.11,-7.4 -9.2,-16.71 -16.22,-30.16 -6.78,-12.91 -9.44,-27.58 -16.22,-38.18 -7.21,-11.29 -16.71,-16.68 -22.01,-25.52 -10.71,-17.84 -11.46,-38.93 -15.09,-60.29 -1.16,-6.97 -5.92,-14.53 -6.97,-23.19 -1.24,-10.65 1.29,-22.47 -1.13,-31.26 -1.85,-6.81 -9.39,-13.7 -13.93,-22.06 -8.15,-15.02 -13.89,-34.65 -20.85,-46.33 -6.51,-10.95 -19.67,-22.36 -20.86,-34.76 -0.78,-8.45 1.05,-24.16 2.32,-32.44 1.27,-8.15 7.29,-14.59 9.28,-23.17 1.32,-5.73 -0.27,-12.27 1.13,-18.56 5.92,-26.52 35.13,-36.19 31.31,-68.39 -1.61,-13.69 -11.29,-20.42 -12.75,-35.94 -0.67,-7.29 3.64,-13.64 3.5,-20.87 -0.21,-9.79 -8.5,-24.32 -12.78,-33.61 -11.73,-25.58 -18.94,-48.96 -35.91,-68.38 -9.23,-10.58 -21.36,-18.03 -28.98,-27.82 -6.24,-7.96 -13.8,-22.84 -13.93,-28.97 -0.11,-6.62 5.11,-10.74 6.99,-17.38 2.39,-8.56 2.59,-24.72 5.78,-38.26 1.46,-6.22 8.18,-21.2 6.97,-31.29 -1.18,-9.69 -15.6,-28.27 -27.84,-31.26 -16.2,-4.03 -32.82,5.17 -53.3,3.47 -17.62,-11.16 -16.3,-40.35 -41.72,-44.06zm275.84 -1133.53c1.37,19.45 -29.7,17.03 -33.63,33.63 -1.75,7.5 3.64,17.56 2.34,24.32 -2.36,12.16 -14.12,8.66 -28.97,15.09 -7.56,3.26 -14.93,15.31 -23.17,16.2 -7.63,0.83 -12.29,-4.47 -17.4,-3.45 -7.61,1.43 -5.06,10.76 -16.22,12.73 -8.91,1.56 -24.48,-7.97 -25.51,3.49 -0.67,7.32 13.99,11.32 23.19,10.42 7.27,-0.73 12.59,-5.7 19.7,-5.79 13.72,-0.14 22.65,10.17 31.29,10.44 19.88,0.53 39.41,-18.38 60.29,-16.25 9.42,0.97 15.02,7.64 22.01,6.97 11.16,-1.05 20.69,-13.96 28.97,-18.56 -3.52,-19.51 0.33,-45.28 18.54,-46.36 12.54,-0.75 31.34,21.44 33.6,0 1.02,-9.3 -9.87,-17.54 -17.38,-17.38 -6.67,0.14 -15.41,13.19 -20.85,2.34 0.03,-10.62 11.92,-7.82 18.56,-10.46 4.9,-1.97 8.4,-7.32 13.89,-9.26 27.58,-9.71 65.78,9.5 76.48,-13.91 -24.46,-20.87 -66.1,7.59 -93.86,5.79 -11.87,-0.75 -27.5,-9.55 -31.29,-20.85 -1.21,-3.58 -0.19,-8.4 -1.16,-15.07 -1.04,-7.37 -4.9,-15.15 -4.62,-19.72 1.15,-20.93 53.29,-24.85 53.29,-50.98 -9.95,-9.52 -39.15,-7.93 -48.67,2.32 -3.44,3.68 -3.28,11.13 -8.12,18.53 -10.39,15.85 -43.96,17.73 -54.48,37.1 -2.34,4.31 -6.4,16.06 -4.63,23.19 2.75,10.97 27.04,13.94 27.82,25.48z"/>
  <path class="fil0" d="M3298.6 143.98c-3.36,-12.54 20.39,-10.52 16.24,1.19 -3.71,3.47 -13.88,3.17 -16.24,-1.19z"/>
  <path class="fil0" d="M3156.06 837.1c0.51,-9.61 22.36,-13.1 26.64,-4.63 -1.46,9.3 -22.17,15.71 -26.64,4.63z"/>
  <path class="fil0" d="M2758.51 774.52c12.11,-9.79 38.99,-3.17 55.64,-3.5 -3.12,8.88 -3.61,20.39 -10.44,25.51 -19,-3.45 -36.7,-8.13 -45.2,-22.01z"/>
  <path class="fil0" d="M2673.9 713.08c15.92,-16.63 32.63,-7.86 26.66,24.34 -3.8,9.58 -20.37,22.41 -27.82,8.1 2.52,-11.25 1.45,-19.51 1.16,-32.44z"/>
  <path class="fil0" d="M2697.09 675.98c1.32,9.85 -2.79,14.23 -8.12,17.4 -15.25,-2.69 -3.66,-30.1 8.12,-17.4z"/>
  <path class="fil0" d="M2472.23 440.7c1.35,-6.62 -3.82,-14.83 -10.43,-18.53 -3.8,-2.16 -9.63,-1.16 -13.89,-3.5 -11.29,-6.18 -15.41,-19.16 -22.03,-22.01 0.86,-12.7 -3.47,-21.89 0,-30.13 2.1,-5.03 17.33,-19.16 25.5,-22.03 10.12,-3.58 20.72,-0.35 26.66,-8.1 2.67,-0.37 4.44,0.16 5.79,1.13 -0.05,7.32 -6.19,8.53 -6.97,15.09 1.46,10.55 20.02,3.93 22.03,13.91 -1.77,10.81 -11.52,12.94 -11.59,20.85 -0.03,6.89 14.04,19.93 20.85,28.98 5.09,6.7 13.99,11.7 18.56,18.56 3.98,6 4.87,13.16 8.1,16.2 6.11,5.78 19.85,6.75 20.87,15.09 1.35,11.06 -13.74,15.41 -11.59,27.79 -15.9,12.51 -42.46,6.02 -68.39,9.3 -11.73,1.46 -24.67,13.16 -37.09,3.45 -2.85,-7.78 10.3,-8.82 11.62,-16.2 -0.95,-6.86 -9.58,-5.89 -11.62,-11.59 3.36,-9.01 13.88,-10.84 12.77,-24.35 6.46,-7.08 18.91,-4.39 20.85,-13.91z"/>
  <path class="fil0" d="M2385.34 412.86c15.47,-9.42 42.5,-2.2 44.01,9.31 1.13,8.69 -8.23,9.92 -11.59,19.66 -3.02,8.88 0.59,19.43 -3.45,25.56 -3.55,5.27 -13.19,4.95 -19.74,6.91 -14.56,4.39 -42.72,21.48 -54.46,2.32 1.7,-10.25 11.62,-12.32 15.07,-20.83 0.19,-6.73 -6.94,-10.25 -5.78,-17.4 1.4,-8.75 7.98,-5.7 17.37,-9.26 6.81,-2.61 9.75,-10.87 18.57,-16.27z"/>
  <path class="fil0" d="M1593.7 161.39c2.45,10.28 -30.48,23.73 -33.63,10.44 -2.48,-10.65 25.24,-23.98 33.63,-10.44z"/>
  <path class="fil0" d="M1555.44 2773.78c-5.78,0 -11.57,0 -17.38,0 3.15,-1.88 14.26,-1.88 17.38,0z"/>
  <path class="fil0" d="M1503.3 79.09l6.97 0c-1.16,2.75 -2.07,5.7 -6.97,4.63l0 -4.63z"/>
  <path class="fil0" d="M1400.15 263.39c0.24,6.38 -23.03,16.92 -25.5,4.6 -0.43,-2.15 0.11,-6.48 4.62,-9.23 6.19,-3.82 20.64,-1.64 20.88,4.63z"/>
  <path class="fil0" d="M917.99 1340.09l-2.31 4.65c-12.32,-0.43 -1.19,-16.2 2.31,-4.65z"/>
  <path class="fil0" d="M447.42 529.94c8.15,-4.74 15.92,7.13 10.44,12.75 -8.96,1.75 -11.23,-8.5 -10.44,-12.75z"/>
  <path class="fil0" d="M1204.27 1388.81c9.15,-1.51 6.48,-22.55 -4.63,-17.43 -8.39,3.9 -4.03,18.78 4.63,17.43zm-347.72 -1184.56c7.42,-1.27 15.01,2.07 19.74,-4.63 -5.54,-25.53 -40.84,-9.93 -61.44,-8.1 -4.33,7.27 -10.12,13.05 -11.57,23.19 15.98,4.01 35.24,-7.37 53.27,-10.46zm5.81 83.48c6.59,-2.29 15.71,-1.1 17.38,-8.15 -5.41,-4.33 -10.98,-10.17 -17.38,-10.41 -8.4,-0.27 -12.43,7.13 -20.88,11.6 -9.79,5.16 -23.38,6.43 -24.32,15.09 17.94,3.47 34.11,-4.33 45.2,-8.13zm207.48 -119.4c3.87,-2.47 9.76,-5.83 6.94,-11.57 -12.8,-6.02 -34.41,-1.45 -53.29,-3.49 -10.71,-15.15 -28.63,-17.49 -30.16,6.96 21.57,17.52 54.24,-8.15 76.51,8.1zm440.44 -89.24l-6.97 0 0 4.63c4.9,1.08 5.81,-1.88 6.97,-4.63zm133.28 113.59c5.7,0.69 8.93,-1.11 8.12,-6.94 -5.16,-3.64 -12.7,1.13 -8.12,6.94zm-1218.14 181.95l-1.16 -4.65c-3.52,-0.03 -7.64,-0.65 -6.94,3.49 1.64,3.34 6.13,3.93 8.1,1.16zm490.26 970.11l2.31 -4.65c-3.5,-11.55 -14.63,4.22 -2.31,4.65zm62.57 -869.28c12.94,-0.46 21.69,-38.66 0,-33.63 -14.5,3.42 -18.02,34.3 0,33.63zm144.87 129.84c-4.79,-5.65 -30.8,0.65 -38.25,5.76 -5.11,3.55 -8.61,12.22 -13.88,18.59 -5.49,6.57 -11.62,11.65 -16.23,17.38 -4.19,5.14 -27.65,39.01 -9.28,42.86 7.83,1.66 23.97,-14.61 25.51,-20.85 5.22,-21.25 14.79,-36.43 31.28,-46.36 9.53,-5.78 19.29,-5.03 20.85,-17.38zm16.25 -18.56c23.08,-9.85 -4.58,-40.14 -15.09,-42.88 -18.78,-4.93 -45.49,13.77 -67.2,19.72 -12.24,3.31 -23.89,3.63 -26.66,13.91 10.94,18.13 32.66,-3.99 48.66,-1.19 8.13,1.46 12.83,12.54 20.85,13.91 5.49,0.95 37.24,-2.55 39.44,-3.47zm50.98 88.11c-16.49,-5.86 -31.69,3.95 -45.19,5.75 -8.05,1.08 -22.71,-1.61 -20.88,10.44 1.51,9.82 16.71,6.25 25.5,3.47 18.33,-5.78 29.89,-10.73 40.57,-19.66zm16.23 -46.38c9.09,-7.18 5.06,-21.82 -4.63,-24.35 -3.8,-0.99 -8.85,2.8 -15.07,2.34 -6.57,-0.51 -13.12,-6.51 -18.53,-6.97 -9.26,-0.81 -18.65,3.77 -22.04,8.13 -0.35,6.91 5.09,8.02 4.66,15.06 -11.27,8.05 -5.3,34.97 5.78,35.94 11.76,1.02 17.87,-29.75 33.6,-32.47 5.7,-0.99 8.64,3.26 16.23,2.32zm60.29 19.69c-4.84,-4.68 -20.58,-3.36 -31.31,-2.31 -7.59,0.78 -16.6,2.36 -17.38,8.12 12.03,5.51 44.9,9.53 48.69,-5.81zm-809.01 -105.46c5.48,-5.62 -2.29,-17.49 -10.44,-12.75 -0.79,4.25 1.48,14.5 10.44,12.75zm1252.89 30.13c-5.41,-1.34 -12.8,-1.1 -19.72,-2.31 -5.89,-1.05 -12.94,-2.8 -18.51,-3.47 -14.31,-1.72 -29.81,2.45 -38.25,-5.81 13.8,-18.33 32.09,-36.38 49.85,-52.17 5.25,-4.67 16.59,-7.93 13.9,-17.38 -9.87,-8.63 -22,0.51 -31.28,5.81 -9.79,5.49 -21.44,13.43 -32.47,15.07 -19.16,2.85 -44.61,-5.62 -60.27,4.63 -2.17,8.74 17.84,5.35 15.04,18.56 -7.66,1.24 -14.92,1.85 -20.82,-3.5 -5.38,-4.84 -2.31,-12.13 -5.81,-15.06 -5.95,-4.9 -28.28,-6.27 -38.26,-4.63 -12.16,1.99 -22.95,9.28 -24.34,19.69 14.63,6.86 38.76,-7.05 44.06,10.44 -8.02,14.45 -26.9,22.36 -24.37,41.73 1.02,7.47 9.88,17.46 16.25,18.56 6.41,1.1 10.01,-5.25 16.22,-4.65 6.57,0.59 5.06,8.09 12.75,6.96 11.16,-4.79 17.33,-20.45 30.13,-19.72 15.34,18.65 -13.85,27.68 -30.13,33.61 -18.53,6.73 -42.67,10.3 -56.79,16.24 -7.4,3.1 -35.45,30.21 -39.41,9.23 -2.82,-15.09 13.88,-10.71 17.4,-23.16 -17.97,-3.5 -34.68,7.72 -51,13.93 -23.3,8.82 -62.76,14.4 -68.39,40.55 -1.1,5.27 2.29,15.06 -1.13,18.53 -2.8,2.83 -19.42,3.31 -26.66,5.81 -11.2,3.82 -20.96,12.03 -27.84,13.89 -5.22,1.45 -12.92,1.02 -16.22,2.34 -9.2,3.58 -12.62,16.06 -23.17,24.34 -4.33,3.39 -13.93,5.84 -17.4,9.26 -5.98,5.99 -6.78,20.96 -17.38,23.19 -6.73,0.59 -12.19,-5.06 -18.54,-1.16 -0.78,14.77 5.19,34.9 -1.16,49.82 -13.72,11.2 -28.81,19.1 -46.35,28.98 -9.72,5.49 -18.4,6.89 -30.16,12.78 -8.31,4.14 -15.9,14.02 -25.47,19.69 -22.15,13.02 -48.86,28.44 -48.67,61.44 0.02,7.13 3.71,14.83 4.63,23.17 0.53,4.92 -0.59,9.71 0,15.06 1.34,12.13 10.14,27.55 0,35.92 -15.63,-6.43 -35.46,-8.58 -46.38,-19.69 -2.96,-11.46 6.02,-20.85 4.65,-31.29 -1.11,-8.4 -12.89,-23.28 -19.72,-24.35 -7.05,-1.1 -13.56,6.38 -20.85,5.79 -8.63,-0.68 -16.71,-12.62 -27.82,-13.91 -16.3,-1.88 -28.3,3.74 -46.35,1.18 -17.49,9.36 -22.6,25.96 -44.04,24.32 -7.53,-0.53 -14.44,-6.32 -23.16,-8.12 -9.47,-1.94 -23.81,-5.28 -33.63,-4.61 -19.72,1.3 -34.06,15.53 -50.98,24.33 -14.96,7.77 -36.13,17.46 -40.57,33.62 -2.45,8.69 -0.38,20.93 -3.5,28.98 -2.04,5.27 -6.51,10.01 -9.25,15.06 -13,23.7 -23.79,55.08 -13.91,89.24 1.45,5.06 14.37,33.63 19.69,39.41 5.97,6.41 23.57,16.01 33.6,16.2 8.48,0.16 18.43,-4.31 26.66,-5.81 9.56,-1.67 21.5,-1.83 30.16,-4.6 25.04,-8.02 20.1,-41.92 45.17,-53.35 10.95,-4.93 23.63,-5.95 42.88,-6.94 6.11,5.19 8.99,14.2 8.13,22.03 -0.62,5.9 -6.25,11.27 -9.26,19.69 -2.63,7.43 -3.2,16.07 -5.81,22.04 -3.44,7.82 -11.13,13.51 -13.91,20.87 -1.8,4.79 -0.8,10.71 -2.31,15.04 -2.66,7.64 -12.86,13.03 -8.12,20.88 24.8,9.85 54.86,-2.83 76.51,1.15 9.12,1.67 27.98,12.59 27.81,26.67 -0.13,10.54 -8.15,17.43 -9.3,28.97 -1.4,14.53 -7.45,32.28 -8.1,44.04 -1.02,19.23 28.22,52.41 48.67,52.14 22.03,-0.27 34.89,-21.93 61.42,-10.42 8.82,3.8 18.13,18.11 27.84,17.38 8.02,-0.56 20.15,-14.63 25.5,-24.34 6.51,-11.87 6.99,-21.85 18.51,-27.79 12.46,-6.46 22.33,-3.34 38.28,-9.28 7.11,-2.67 13.26,-7.18 19.7,-11.62 5.59,-3.85 11.52,-13.96 18.53,-6.95 9.26,9.23 -11.32,14.47 -3.47,24.35 16.06,8.5 24.3,-15.85 35.94,-16.22 3.71,-0.11 16.55,7.24 23.17,11.59 9.04,5.95 12.13,14.28 22,16.2 6.38,1.27 16.58,-2.39 25.51,-1.16 11.81,1.69 18.88,11.87 27.84,11.6 10.9,-0.3 16.14,-12.16 25.48,-13.89 20.47,-3.76 28.06,2.29 37.07,15.04 10.12,1.78 10.46,-11.65 19.72,-6.94 -5.09,10.12 1.72,14.77 5.78,23.22 2.64,5.41 2.21,9.23 4.66,11.57 5.54,5.27 16.19,5.27 24.32,10.43 8.56,5.38 13.37,15.39 23.19,26.64 10.09,11.54 27.07,23.49 40.54,24.35 12.75,0.8 23.11,-3.61 33.63,-2.32 24,2.96 38.88,14.91 55.66,27.84 9.36,7.18 17.81,12.19 20.82,20.83 2.1,6.02 1.08,14.12 3.5,20.87 5.11,14.42 26.15,21.37 18.56,46.36 3.47,7.31 11.27,9.93 19.67,15.06 6.73,4.12 12.4,12.73 19.69,13.91 4.74,0.79 9.85,-1.4 13.91,-1.18 13.19,0.95 22.22,6.02 33.63,10.46 7.1,2.72 16.17,3.8 20.87,7 5.9,3.93 6.65,17.27 13.91,20.8 4.74,2.31 15.28,-0.89 23.17,0 12.45,1.48 29.35,9.06 40.57,9.3 6.83,0.16 12.48,-2.82 18.53,-2.34 28.38,2.21 44.48,36.16 71.88,46.38 8.48,3.17 21.93,0.95 27.8,3.47 10.27,4.47 18.94,35.89 19.71,49.8 2.32,42.13 -30.02,55.64 -48.69,83.48 -3.9,5.81 -6.06,15.04 -11.59,23.19 -11.11,16.36 -23.49,19.74 -22.01,49.85 0.43,8.23 4.63,16.27 4.63,25.48 0,11.22 -0.97,25.88 -3.5,35.94 -1.88,7.66 -8.23,13.88 -9.25,20.85 -1.02,7.07 2.07,12.54 1.15,18.59 -0.97,6.67 -7.66,16.06 -12.75,25.46 -10.71,19.77 -13.05,43.04 -34.76,50.95 -12.77,4.71 -30.08,2.1 -44.04,6.97 -5.65,1.99 -12.77,7.24 -19.72,10.44 -20.17,9.39 -48.91,22.06 -54.45,42.88 -4.97,18.54 6.89,33.33 3.47,54.48 -3.6,6.29 -8.47,12.61 -13.91,19.69 -5,6.62 -7.47,14.34 -12.75,20.88 -6.96,8.72 -17.78,12.59 -22,24.34 -1.43,4.01 -0.54,8.72 -2.32,15.07 -0.67,2.34 -4.95,5.95 -6.97,10.41 -1.88,4.12 -1.77,9.39 -3.49,12.78 -5.28,10.68 -21.04,35.03 -32.45,38.25 -24.05,6.73 -49.42,-10.22 -66.04,-6.99 2.39,11.62 10.81,10.44 16.24,18.56 3.15,4.79 4.87,11.16 9.23,16.22 5.22,6.03 9.82,8.27 10.47,15.07 1.32,14.28 -9.82,28.65 -17.38,33.63 -6.94,4.55 -21.36,7.18 -33.63,9.23 -8.58,1.45 -30.73,1.53 -34.78,6.99 -5.97,8.07 3.17,27.93 -1.13,35.92 -8.66,16.95 -31.96,-0.46 -44.07,4.62 -1.02,8.75 2.2,17.92 9.28,22.01 7.29,4.28 18.35,-1.29 23.19,6.97 -2.36,11.54 -14.77,13.02 -17.4,24.34 0.34,11.06 3.74,13.96 2.33,20.85 -3.01,14.88 -26.17,14.29 -25.5,30.16 1,23.73 45.52,13.99 46.36,37.1 0.45,13.99 -12.76,14.12 -17.38,27.79 -2.51,7.29 1.43,8.98 0,15.07 -1.94,8.21 -11.6,10.57 -11.6,19.69 -0.02,11.08 16.22,23.3 24.32,32.45 7.94,8.98 18.14,21.81 29,27.84 16.25,8.98 40.49,6.97 47.51,23.18 -2.2,9.75 -11.62,12.32 -20.87,15.02l-2.32 0c-3.12,-1.88 -14.23,-1.88 -17.38,0 -5.41,0 -10.81,0 -16.22,0 -15.5,-7.15 -34.33,-11.73 -53.32,-18.49 -6.83,-2.45 -14.58,-8.26 -22.01,-11.57 -5.59,-2.57 -11.86,-3.55 -16.24,-5.83 -9.98,-5.24 -21.2,-22.22 -31.29,-28.95 -6.11,-4.11 -15.72,-6.3 -19.7,-10.49 -3.79,-3.93 -5.86,-12.54 -9.28,-17.35 -3.74,-5.3 -10.6,-9.2 -15.06,-15.07 -9.63,-12.77 -21.93,-29.99 -22.01,-39.44 -0.08,-9.26 8.82,-15.55 5.81,-24.27 -2.85,-8.26 -20.64,-6.43 -23.19,-16.28 -1.56,-5.92 5.11,-15.9 4.63,-24.32 -0.27,-4.84 -9.39,-11.52 -5.81,-18.56 4.17,-8.12 12.03,0.67 18.56,-3.44 -4.93,-16.74 0.37,-43.67 -16.25,-48.72 -8.56,7.21 8.75,23.4 -5.78,27.84 -14.02,-6.24 -10.76,-24.7 -13.91,-38.26 -2.04,-8.93 -6.48,-17 -6.92,-26.66 -0.24,-5.06 1.97,-10.94 1.13,-16.17 -2.47,-15.63 -19.85,-28.44 -20.87,-44.09 -0.46,-7.53 4.63,-13.91 5.81,-22.01 0.81,-5.46 -0.78,-11.62 0,-17.4 1.02,-7.34 5.09,-14.12 5.78,-20.85 1.37,-12.73 -0.02,-34.57 -2.31,-45.22 -2.88,-13.38 -13.51,-24.75 -15.09,-39.36 -0.54,-5.3 1.78,-14.1 1.18,-20.88 -0.53,-6.27 -4.01,-12.54 -4.63,-19.72 -0.59,-6.59 1.65,-12.91 2.32,-20.87 1.24,-14.53 -2.83,-30.76 -2.32,-45.2 0.16,-4.25 2.39,-7.43 2.32,-11.57 -0.14,-11.94 -4.12,-24.02 -4.63,-35.94 -0.95,-22.01 2.42,-37.58 -1.16,-57.92 -2.71,-15.44 -6.02,-39.02 -11.59,-48.67 -6.22,-10.79 -30.59,-29.14 -42.86,-35.97 -8.12,-4.51 -17.84,-6.05 -26.69,-10.44 -18.86,-9.23 -55.47,-28.81 -63.73,-47.48 -2.39,-5.41 -2.07,-12.57 -4.65,-18.56 -5.03,-11.89 -15.66,-22.15 -23.19,-33.63 -14.31,-21.87 -25.85,-49.29 -40.57,-71.86 -7.43,-11.45 -13.86,-24.45 -22.01,-33.6 -4.76,-5.38 -20.04,-10.39 -22,-18.53 -2.62,-10.71 -10.55,-25.43 -9.29,-33.61 1.67,-11.08 23.22,-20.04 23.19,-30.13 -0.02,-8.58 -11.51,-13.58 -13.9,-20.85 -5.84,-17.73 3.44,-28.11 10.43,-42.91 2.29,-4.84 4.55,-12.64 6.97,-16.22 4.22,-6.38 12.86,-8.18 18.51,-15.06 3.17,-3.87 5.14,-11.92 9.28,-17.38 8.8,-11.71 23.03,-16.09 26.66,-26.66 2.96,-8.61 4.68,-51.66 1.13,-66.05 -2.01,-8.34 -9.76,-15.31 -12.72,-23.19 -5.25,-13.99 -6.46,-29.27 -20.88,-29 -8.88,0.19 -15.15,10.04 -20.85,16.25 -1.37,8.26 -0.64,17.17 -9.28,19.67 -13.16,3.9 -18.24,-13.86 -33.6,-18.51 -6.11,-1.86 -15.87,-1.78 -19.69,-3.48 -11.22,-5.06 -14.83,-21.47 -26.66,-27.84 -9.91,-5.3 -18.35,-3.44 -24.35,-11.59 -2.5,-5.6 -0.54,-15.69 -1.16,-23.17 -12.7,-7.45 -23.46,-35.16 -38.23,-41.72 -9.81,-4.36 -24.83,-3.93 -37.1,-8.13 -5.75,-1.94 -10.22,-4.46 -16.22,-5.78 -7.45,-1.64 -15.09,-1.75 -20.85,-4.63 -22.95,-11.41 -35.32,-48.29 -63.73,-47.51 -12.13,0.32 -23.81,11.65 -34.79,11.59 -10.92,-0.05 -29.22,-8.74 -42.9,-15.09 -14.24,-6.59 -29.97,-10.2 -41.7,-16.19 -9.47,-4.87 -16.06,-13.72 -24.38,-17.43 -6.34,-2.8 -15.6,-3.31 -20.82,-5.76 -7.43,-3.52 -15.15,-11 -24.35,-17.41 -8.74,-6.05 -18.21,-15.34 -18.56,-23.16 -0.37,-9.07 8.34,-16.79 9.28,-25.53 2.99,-27.58 -17.35,-47.43 -30.15,-63.73 -9.47,-12.11 -20.58,-22.38 -30.11,-33.61 0.54,-7.42 0.54,-8.77 0,-16.22 -7.18,-6.96 -13.26,-17.33 -20.88,-27.81 -6.86,-9.45 -20.29,-19.51 -22,-30.14 -2.13,-13 4.95,-24.45 0,-37.09 -8.24,-20.99 -37.37,-11.49 -33.63,16.24 1.05,7.64 11.84,17.92 15.07,25.51 3.33,7.72 2.71,17.35 5.81,26.63 2.98,8.93 11.97,16.63 15.06,26.66 4.93,15.88 4.79,32.98 9.28,42.89 3.98,8.79 18.65,17.16 10.41,27.81 -10.94,2.26 -15.17,-8.69 -22,-15.06 -3.8,-3.55 -17.57,-10.28 -19.7,-18.54 -1.75,-6.83 4.33,-16.01 2.32,-24.35 -3.98,-16.35 -36.99,-16.75 -37.1,-33.6 -0.05,-10.55 13.8,-11.81 13.93,-22.03 0.08,-11.16 -15.25,-20.64 -18.56,-30.11 -3.01,-8.72 -3.52,-22.54 -4.63,-34.78 -1.08,-11.46 0.33,-24.75 -2.34,-33.63 -2.36,-7.96 -14.34,-18.91 -22,-23.19 -10.17,-5.65 -18.22,-3.31 -23.19,-11.57 -4.33,-7.24 -7.16,-22.33 -8.1,-30.1 -1.67,-13.96 -0.37,-29.19 -1.18,-44.07 -0.75,-14.9 -2.29,-29.19 0,-45.19 5.73,-11.22 16.19,-16.74 22.03,-27.85 4.09,-7.72 4.68,-17.27 9.26,-25.47 8.47,-15.15 26.98,-29.12 39.41,-44.04 13.42,-16.09 25.77,-31.48 33.6,-49.85 2.82,-6.54 10.39,-20.99 9.28,-28.98 -1.51,-11.16 -22.52,-20.36 -20.85,-33.6 1.05,-8.21 12.75,-8.1 16.25,-16.2 1.78,-4.22 3.39,-15.87 3.47,-20.9 0.16,-11.16 -5.73,-22.81 -3.47,-34.76 1.88,-10.2 17.05,-14.31 9.25,-25.48 -7.72,-11.08 -21.6,5.98 -30.13,-1.18 -7.85,-6.59 1.56,-14.55 2.32,-26.66 0.29,-4.84 -2.83,-10.33 -2.32,-13.91 0.7,-5.16 10.79,-13.88 8.1,-17.38 -6.24,-7.93 -13.29,-28.06 -26.66,-34.75 -17.01,-8.56 -35.43,-2.8 -59.08,-6.97 -14.53,-2.55 -21.39,-16.14 -34.76,-15.04 -8.28,0.64 -13.02,10.09 -24.37,15.04 -11.25,4.92 -25.94,3.23 -37.1,5.78 -11.03,2.55 -16.36,10.2 -27.82,9.28 -9.52,-0.75 -9.6,-9.33 -20.85,-10.41 -4.39,-0.46 -12.67,2.71 -19.69,3.47 -17.91,1.88 -50.26,2.78 -68.39,-1.15 -16.59,-3.61 -26.84,-8.88 -45.19,-17.41 -13.77,-6.38 -39.36,-14.26 -38.26,-24.35 0.7,-6.48 24.24,-13.37 33.6,-16.19 15.1,-4.61 24.43,-12.06 35.95,-12.78 4.44,-0.27 10.3,2.77 16.22,2.36 5.95,-0.46 13.26,-5.94 20.87,-6.99 16.18,-2.23 39.02,0.84 37.08,-15.04 -12.29,-9.74 -62.44,7.18 -63.74,-13.91 -0.8,-12.77 19.03,-16.63 33.63,-19.69 13.29,-2.82 33.44,-7.59 45.17,-6.97 13.24,0.65 30.64,15.47 38.26,-1.15 3.68,-11.84 -4.49,-21.77 -6.97,-31.32 9.85,-13.58 27.95,-11.89 41.75,-13.91 15.74,-2.31 28.6,-5.11 44.04,-11.59 13.56,-5.67 27.93,-9.47 44.02,-11.57 15.73,-2.04 31.02,-7.99 45.22,-9.28 11.68,-1.05 22.38,-0.14 33.6,-2.31 9.9,-1.94 20.39,-7.43 31.31,-6.95 7.29,0.33 13.51,5.65 20.83,6.95 6.89,1.18 14.77,-0.38 22.06,1.15 5.59,1.18 10.62,4.98 16.19,5.81 8.8,1.32 18.22,-1.24 26.66,0 7.8,1.11 14.42,5.97 22.01,6.94 17.87,2.32 38.28,-0.94 55.66,2.34 6.57,1.24 12.51,4.47 19.69,5.79 6.78,1.21 14.26,-0.16 20.85,1.13 9.23,1.85 16.92,10.57 26.69,11.59 17.91,1.86 38.07,-7.77 56.77,-9.28 13.53,-1.04 27.49,0.56 41.72,-2.31 12.94,-2.59 25.48,-7.61 37.1,-8.1 6.29,-0.27 11.62,1.94 17.38,1.18 6,-0.83 13.21,-8.02 19.69,-6.96 8.64,1.37 7.11,12.29 16.22,15.04 10.12,-5.22 20.18,0.37 31.32,0 10.81,-0.35 20.5,-5.33 32.44,-3.47 21.09,3.33 50.58,23.97 67.21,12.75 4.19,-2.83 3.2,-7.73 6.96,-15.04 5.12,-10.01 15.23,-21.74 12.76,-35.94 -23.24,0.34 -45.41,11.7 -71.89,12.75 -26.71,-16.76 7.16,-27.15 26.66,-34.79 16.12,-6.29 28.84,-20.34 48.72,-23.16 16.2,-2.34 34.04,3.58 53.3,5.81 11.22,1.29 22.46,-0.83 28.97,1.13 11.38,3.42 17.22,14.69 26.66,17.38 4.06,1.16 10.74,1.05 16.2,2.34 10.44,2.39 19.77,7.91 30.16,0 8.18,1.45 9.11,10.14 17.37,11.59 7.69,-4.16 13.64,-14.71 25.51,-17.4 5.14,-1.16 10.55,0.88 16.22,0 9.44,-1.51 22.03,-14.31 27.82,-2.34 -2.37,8.4 -15.02,9.63 -22.03,16.25 -6.25,5.89 -15.85,19.39 -15.05,25.5 1.37,11.06 17.92,6.78 18.52,20.88 -2.45,8.1 -11.87,4.46 -19.7,8.1 -7.13,3.3 -9.79,10.14 -17.38,11.59 -21.06,3.96 -38.55,-5.3 -56.76,-4.65 -0.86,7.91 9.01,12.51 13.88,15.06 16.55,8.69 30.02,7.51 53.3,6.94 11.94,-0.24 25.66,3.58 35.94,-3.44 6.48,-4.44 6.16,-14.28 11.59,-19.72 6.54,-6.51 21.66,-13.16 31.29,-11.59 5.27,0.88 12.67,7.15 12.75,11.59 0.19,10.55 -14.9,7.18 -15.06,18.56 9.81,5.86 35.7,-6.45 37.07,-16.25 1.02,-7.15 -8.42,-11.27 -8.1,-18.51 0.56,-12.16 17.06,-11.94 15.07,-24.37 -7.97,-6.24 -16.25,1.35 -24.35,0 -11.38,-1.88 -21.63,-15.52 -26.66,-24.34 5.03,-6.22 15.57,-2.07 23.19,-1.14 8.5,-11.78 24.37,-16.38 46.35,-18.56 7.8,-0.78 18.24,-3.87 22.03,3.47 1.88,11 -16.24,17.57 -12.75,30.16 15.58,3.9 20.72,-17.14 33.63,-25.53 5.67,-3.66 13.8,-6.13 22.01,-9.23 7.13,-2.75 15.01,-9.47 20.87,-9.28 6.41,0.16 7.53,5.44 13.89,8.1 5.73,2.42 13.18,-1.64 15.09,5.78 -13.45,23.3 -63.52,9.93 -76.51,33.63 2.88,15.87 -7.85,31.05 1.15,41.73 6.46,7.61 20.96,2.42 24.32,10.41 4.55,10.68 -14.04,10.68 -9.23,23.19 12.27,7.34 26.85,-6.99 38.21,-12.73 12.19,-6.18 27.58,-13.48 29,-27.82 -6.13,-11.81 -28.98,-2.68 -32.45,-15.06 -1.88,-6.76 7,-21.82 9.26,-24.35 12.08,-13.56 54.29,-32.85 84.61,-30.15 5.76,0.53 11.57,4.03 17.38,4.65 19.93,2.07 43.48,-8.61 59.13,0 12.56,-7.34 27.68,0.99 45.17,-1.18 13.51,7.96 9.79,24.91 30.16,32.44 5.51,2.1 12.42,0.62 19.69,2.34 5.38,1.29 11.22,7.61 17.38,10.44 8.77,4 15.52,3.07 17.38,9.25 1.85,6.06 -6.38,9.98 -5.79,16.23 5,4.14 0.84,10.36 3.47,16.24 5.03,10.71 17.65,9.93 30.13,15.04 8.8,3.61 27.5,14.64 26.67,23.22 -0.54,5.73 -17.6,15.79 -23.19,18.54 -3.96,1.94 -23.49,11.38 -30.11,10.43 -10.95,-1.64 -15.23,-23.78 -30.13,-23.19 -6.51,0.24 -12.64,4.17 -12.78,12.76 -0.24,15.22 17.03,15.82 17.38,28.97 0.49,15.74 -8.61,16.82 -21.98,26.63 -9.63,-3.9 -17.7,-9.36 -30.18,-10.41 -7.37,8.8 12.19,11.97 5.81,23.17 -18.62,3.98 -32.8,-5.25 -49.8,-10.39 -5.33,-1.64 -13.03,-1 -17.41,-3.5 -6.56,-3.82 -8.5,-15.09 -13.9,-20.87 -6.27,-6.76 -18.78,-16.28 -28.98,-16.2 -14.34,0.03 -35.06,17.81 -46.38,1.13 7.85,-26.55 45.04,-6.86 69.55,-16.22 9.11,-3.5 12.26,-13.13 19.71,-17.38 14.99,-8.56 39.34,-9.77 37.1,-26.69 -1.16,-8.5 -13.07,-8.37 -19.69,-12.72 -9.1,-5.92 -16.01,-26.8 -28.98,-27.82 -6.67,-0.53 -11.49,5.11 -18.56,5.79 -14.99,1.43 -31.66,-6.03 -45.19,0 -6.3,3.6 -2.05,9.36 -6.97,16.22 -4.03,5.62 -13.59,7.21 -17.38,12.78 -4.44,6.51 -3.55,14.63 -9.28,19.69 -9.53,8.42 -29.65,9.76 -41.7,13.91 -5.38,1.83 -12.19,8.15 -17.38,8.1 -9.58,-0.05 -13.7,-12.87 -24.37,-8.1 -0.92,12.4 13.12,17.43 22.03,23.16 9.63,6.19 19.74,12.38 23.16,23.17 -9.41,20.01 -24.45,-1.05 -39.38,-1.14 -16.46,-0.13 -40.46,31.32 -54.48,5.79 3.5,-13.51 18.37,-15.6 22.03,-28.95 -16.38,2.77 -30.61,16.55 -49.85,20.85 -8.1,1.8 -15.95,1.34 -23.19,3.45 -13.88,4.09 -23.56,14.34 -38.23,19.74 -5.73,2.1 -12.56,1.45 -18.56,3.44 -13.99,4.68 -30.75,13.05 -45.17,20.88 -14.77,7.99 -31.4,16.38 -40.57,24.35 -4.95,4.25 -17.84,19.5 -17.38,24.34 0.56,6.86 13.59,9.15 13.91,16.2 -0.3,4.28 -7.53,13.51 -2.31,19.72 4.74,5.65 14.23,1.11 24.32,2.29 17.7,2.23 29.3,16.84 42.88,24.37 10.25,5.67 25.5,12.45 37.1,13.88 15.92,2.02 33.74,-4.65 35.91,8.13 2.1,12.26 -15.01,16.65 -16.22,24.34 8.59,11.32 -5.81,16.74 -5.78,26.69 0.02,8.02 9.87,20.1 18.53,20.82 11.65,1 28.77,-11.52 33.61,-23.16 5.78,-13.93 3.3,-32.77 13.9,-42.88 54,1.48 99.68,-24.54 96.21,-79.98 -0.35,-5.47 -3.45,-12.54 -2.32,-18.54 1.7,-8.96 17.08,-16.46 15.04,-27.79 15.15,-4.68 14.51,-28.95 30.16,-32.47 13.1,-2.96 27.95,9.25 45.17,8.1 5.62,-0.38 12.91,-5.41 18.56,-4.63 11.33,1.59 18.17,15.55 26.66,22.03 7.53,5.76 15.47,3.9 17.41,11.57 -2.26,13 -11.41,13.32 -10.46,25.5 0.85,10.6 11.89,18.68 17.37,19.72 8.48,1.59 20.56,-2.96 29,-6.97 15.5,-7.34 28.79,-29.45 41.73,-26.66 10.2,2.21 18.19,34.68 19.69,46.36 1.62,12.54 -1.69,22.09 -1.15,33.63 1.5,19.53 26.1,17.56 38.23,27.81 3.65,3.1 5.11,11.04 8.15,15.07 5.86,7.85 12.99,7.85 13.88,16.2 2.18,20.01 -18.14,21.73 -16.25,44.06 -4.17,8.66 -14.74,8.15 -13.88,19.69 1.34,18.3 27.63,4.26 34.76,18.57 3.87,7.66 -0.65,13.37 -3.47,24.32 8.98,10.71 8.9,27.79 -6.95,27.81 -9.63,0 -12.29,-10.36 -22.03,-12.75z"/>
  <path class="fil0" d="M424.25 369.98l1.16 4.65c-1.97,2.77 -6.46,2.18 -8.1,-1.16 -0.7,-4.14 3.42,-3.52 6.94,-3.49z"/>
  <path class="fil0" d="M389.49 438.39c-2.47,7.59 -9.14,10.92 -16.24,13.91l-5.79 -5.81c0.49,-10.98 16.17,-19.1 22.03,-8.1z"/>
  <path class="fil1" d="M4304.73 741.17c0,41.35 -74.84,112.21 -74.84,112.21 0,0 -74.84,-70.86 -74.84,-112.21 0,-41.33 33.49,-74.82 74.84,-74.82 41.35,0 74.84,33.49 74.84,74.82z"/>
  <path class="fil1" d="M5446.17 2160.32c0,41.32 -74.87,112.19 -74.87,112.19 0,0 -74.85,-70.87 -74.85,-112.19 0,-41.33 33.52,-74.84 74.85,-74.84 41.35,0 74.87,33.52 74.87,74.84z"/>
  <path class="fil1" d="M1712.04 1925.43c0,41.35 -74.84,112.19 -74.84,112.19 0,0 -74.84,-70.84 -74.84,-112.19 0,-41.33 33.52,-74.85 74.84,-74.85 41.35,0 74.84,33.52 74.84,74.85z"/>
  <path class="fil2" d="M880.43 1166.13c0,41.33 -74.84,112.19 -74.84,112.19 0,0 -74.84,-70.86 -74.84,-112.19 0,-41.35 33.49,-74.84 74.84,-74.84 41.33,0 74.84,33.49 74.84,74.84z"/>
  <path class="fil2" d="M1041.26 339.39c0,41.32 -74.87,112.19 -74.87,112.19 0,0 -74.85,-70.87 -74.85,-112.19 0,-41.36 33.52,-74.85 74.85,-74.85 41.35,0 74.87,33.49 74.87,74.85z"/>
  <path class="fil1" d="M463.08 199.22c0,41.33 -74.84,112.19 -74.84,112.19 0,0 -74.85,-70.86 -74.85,-112.19 0,-41.33 33.49,-74.84 74.85,-74.84 41.35,0 74.84,33.52 74.84,74.84z"/>
  <path class="fil2" d="M4207.96 140.03c0,41.33 -74.84,112.19 -74.84,112.19 0,0 -74.85,-70.86 -74.85,-112.19 0,-41.35 33.52,-74.87 74.85,-74.87 41.32,0 74.84,33.52 74.84,74.87z"/>
  <path class="fil2" d="M5311.38 777.48c0,41.33 -74.84,112.19 -74.84,112.19 0,0 -74.87,-70.86 -74.87,-112.19 0,-41.33 33.52,-74.84 74.87,-74.84 41.33,0 74.84,33.52 74.84,74.84z"/>
  <path class="fil1" d="M2973.12 351.47c0,41.35 -74.87,112.18 -74.87,112.18 0,0 -74.85,-70.83 -74.85,-112.18 0,-41.33 33.52,-74.85 74.85,-74.85 41.35,0 74.87,33.52 74.87,74.85z"/>
  <path class="fil2" d="M3057.87 1368.23c0,41.33 -74.87,112.19 -74.87,112.19 0,0 -74.84,-70.86 -74.84,-112.19 0,-41.33 33.52,-74.84 74.84,-74.84 41.35,0 74.87,33.52 74.87,74.84z"/>
 </g>
</svg>
