<?xml version="1.0" encoding="UTF-8"?>
<!DOCTYPE svg PUBLIC "-//W3C//DTD SVG 1.1//EN" "http://www.w3.org/Graphics/SVG/1.1/DTD/svg11.dtd">
<!-- Creator: CorelDRAW -->
<svg xmlns="http://www.w3.org/2000/svg" xml:space="preserve" width="8.115mm" height="8.1146mm" version="1.1" style="shape-rendering:geometricPrecision; text-rendering:geometricPrecision; image-rendering:optimizeQuality; fill-rule:evenodd; clip-rule:evenodd"
viewBox="0 0 34.91 34.91"
 xmlns:xlink="http://www.w3.org/1999/xlink"
 xmlns:xodm="http://www.corel.com/coreldraw/odm/2003">
 <defs>
  <style type="text/css">
   <![CDATA[
    .fil1 {fill:none;fill-rule:nonzero}
    .fil0 {fill:#FDFEFF;fill-rule:nonzero}
   ]]>
  </style>
   <clipPath id="id0" style="clip-rule:nonzero">
    <path d="M34.91 17.46c0,9.64 -7.82,17.46 -17.46,17.46 -9.64,0 -17.46,-7.82 -17.46,-17.46 0,-9.64 7.82,-17.46 17.46,-17.46 9.64,0 17.46,7.82 17.46,17.46z"/>
   </clipPath>
    <clipPath id="id1">
     <path d="M34.91 17.46c0,9.64 -7.82,17.46 -17.46,17.46 -9.64,0 -17.46,-7.82 -17.46,-17.46 0,-9.64 7.82,-17.46 17.46,-17.46 9.64,0 17.46,7.82 17.46,17.46z"/>
    </clipPath>
    <clipPath id="id2">
     <path d="M34.91 17.46c0,9.64 -7.82,17.46 -17.46,17.46 -9.64,0 -17.46,-7.82 -17.46,-17.46 0,-9.64 7.82,-17.46 17.46,-17.46 9.64,0 17.46,7.82 17.46,17.46z"/>
    </clipPath>
 </defs>
 <g id="Camada_x0020_1">
  <metadata id="CorelCorpID_0Corel-Layer"/>
  <path class="fil0" d="M34.91 17.46c0,9.64 -7.82,17.46 -17.46,17.46 -9.64,0 -17.46,-7.82 -17.46,-17.46 0,-9.64 7.82,-17.46 17.46,-17.46 9.64,0 17.46,7.82 17.46,17.46z"/>
  <g style="clip-path:url(#id0)">
   <g id="_1473873556208">
   </g>
   <g style="clip-path:url(#id1)">
    <image x="-9.88" y="-3.75" width="56.05" height="49.01" xlink:href="Usuário_Images\Usuário_ImgID1.png"/>
   </g>
   <g style="clip-path:url(#id2)">
   </g>
  </g>
  <path class="fil1" d="M34.91 17.46c0,9.64 -7.82,17.46 -17.46,17.46 -9.64,0 -17.46,-7.82 -17.46,-17.46 0,-9.64 7.82,-17.46 17.46,-17.46 9.64,0 17.46,7.82 17.46,17.46z"/>
 </g>
</svg>
