<?xml version="1.0" encoding="UTF-8"?>
<!DOCTYPE svg PUBLIC "-//W3C//DTD SVG 1.1//EN" "http://www.w3.org/Graphics/SVG/1.1/DTD/svg11.dtd">
<!-- Creator: CorelDRAW -->
<svg xmlns="http://www.w3.org/2000/svg" xml:space="preserve" width="2.5735mm" height="3.3772mm" version="1.1" style="shape-rendering:geometricPrecision; text-rendering:geometricPrecision; image-rendering:optimizeQuality; fill-rule:evenodd; clip-rule:evenodd"
viewBox="0 0 3.18 4.17"
 xmlns:xlink="http://www.w3.org/1999/xlink"
 xmlns:xodm="http://www.corel.com/coreldraw/odm/2003">
 <defs>
  <style type="text/css">
   <![CDATA[
    .fil0 {fill:#B1ADDE;fill-rule:nonzero}
   ]]>
  </style>
 </defs>
 <g id="Camada_x0020_1">
  <metadata id="CorelCorpID_0Corel-Layer"/>
  <path class="fil0" d="M2.09 1.72c0.26,-0.17 0.43,-0.45 0.43,-0.78 0,-0.52 -0.42,-0.93 -0.93,-0.93 -0.52,0 -0.93,0.42 -0.93,0.93 0,0.33 0.17,0.62 0.43,0.78 -0.61,0.05 -1.09,0.57 -1.09,1.19l0 0.97 0 0.02 0.07 0.02c0.63,0.2 1.17,0.26 1.62,0.26 0.88,0 1.39,-0.25 1.42,-0.27l0.06 -0.03 0.01 0 0 -0.97c0,-0.62 -0.48,-1.13 -1.09,-1.19z"/>
 </g>
</svg>
