<?xml version="1.0" encoding="UTF-8"?>
<!DOCTYPE svg PUBLIC "-//W3C//DTD SVG 1.1//EN" "http://www.w3.org/Graphics/SVG/1.1/DTD/svg11.dtd">
<!-- Creator: CorelDRAW -->
<svg xmlns="http://www.w3.org/2000/svg" xml:space="preserve" width="2.7739mm" height="2.7739mm" version="1.1" style="shape-rendering:geometricPrecision; text-rendering:geometricPrecision; image-rendering:optimizeQuality; fill-rule:evenodd; clip-rule:evenodd"
viewBox="0 0 18.38 18.38"
 xmlns:xlink="http://www.w3.org/1999/xlink"
 xmlns:xodm="http://www.corel.com/coreldraw/odm/2003">
 <defs>
  <style type="text/css">
   <![CDATA[
    .fil0 {fill:#848484;fill-rule:nonzero}
   ]]>
  </style>
 </defs>
 <g id="Camada_x0020_1">
  <metadata id="CorelCorpID_0Corel-Layer"/>
  <path class="fil0" d="M17.88 15.44l-4.22 -4.22c-0.63,0.98 -1.46,1.81 -2.44,2.44l4.22 4.22c0.67,0.67 1.76,0.67 2.44,0 0.67,-0.67 0.67,-1.76 0,-2.44z"/>
  <path class="fil0" d="M6.89 12.06c-2.85,0 -5.17,-2.32 -5.17,-5.17 0,-2.85 2.32,-5.17 5.17,-5.17 2.85,0 5.17,2.32 5.17,5.17 0,2.85 -2.32,5.17 -5.17,5.17zm6.89 -5.17c0,-3.81 -3.09,-6.89 -6.89,-6.89 -3.81,0 -6.89,3.09 -6.89,6.89 0,3.81 3.09,6.89 6.89,6.89 3.81,0 6.89,-3.09 6.89,-6.89z"/>
 </g>
</svg>
