<?xml version="1.0" encoding="UTF-8"?>
<!DOCTYPE svg PUBLIC "-//W3C//DTD SVG 1.1//EN" "http://www.w3.org/Graphics/SVG/1.1/DTD/svg11.dtd">
<!-- Creator: CorelDRAW -->
<svg xmlns="http://www.w3.org/2000/svg" xml:space="preserve" width="3.7548mm" height="3.7mm" version="1.1" style="shape-rendering:geometricPrecision; text-rendering:geometricPrecision; image-rendering:optimizeQuality; fill-rule:evenodd; clip-rule:evenodd"
viewBox="0 0 6.73 6.63"
 xmlns:xlink="http://www.w3.org/1999/xlink"
 xmlns:xodm="http://www.corel.com/coreldraw/odm/2003">
 <defs>
  <style type="text/css">
   <![CDATA[
    .fil0 {fill:#B1ADDE;fill-rule:nonzero}
   ]]>
  </style>
 </defs>
 <g id="Camada_x0020_1">
  <metadata id="CorelCorpID_0Corel-Layer"/>
  <path class="fil0" d="M3.67 5.51c-0.08,0.08 -0.19,0.12 -0.31,0.12 -0.12,0 -0.22,-0.04 -0.31,-0.12 -0.08,-0.08 -0.13,-0.18 -0.13,-0.31 0,-0.13 0.04,-0.23 0.13,-0.31 0.09,-0.08 0.19,-0.12 0.31,-0.12 0.12,0 0.23,0.04 0.31,0.12 0.08,0.08 0.12,0.19 0.12,0.31 0,0.13 -0.04,0.23 -0.12,0.31zm-0.66 -3.72l0.7 0 0 1.01c0,0.3 -0.01,0.58 -0.03,0.83 -0.02,0.25 -0.05,0.5 -0.08,0.76l-0.47 0c-0.04,-0.25 -0.07,-0.51 -0.09,-0.76 -0.02,-0.25 -0.03,-0.53 -0.03,-0.82l0 -1.01zm3.56 2.88l-2.02 -3.95c-0.5,-0.97 -1.89,-0.97 -2.39,0l-2.02 3.95c-0.46,0.89 0.19,1.95 1.19,1.95l4.04 0c1,0 1.65,-1.06 1.19,-1.95z"/>
 </g>
</svg>
