<?xml version="1.0" encoding="UTF-8"?>
<!DOCTYPE svg PUBLIC "-//W3C//DTD SVG 1.1//EN" "http://www.w3.org/Graphics/SVG/1.1/DTD/svg11.dtd">
<!-- Creator: CorelDRAW -->
<svg xmlns="http://www.w3.org/2000/svg" xml:space="preserve" width="3.979mm" height="3.846mm" version="1.1" style="shape-rendering:geometricPrecision; text-rendering:geometricPrecision; image-rendering:optimizeQuality; fill-rule:evenodd; clip-rule:evenodd"
viewBox="0 0 7.55 7.3"
 xmlns:xlink="http://www.w3.org/1999/xlink"
 xmlns:xodm="http://www.corel.com/coreldraw/odm/2003">
 <defs>
  <style type="text/css">
   <![CDATA[
    .fil0 {fill:#B1ADDE}
   ]]>
  </style>
 </defs>
 <g id="Camada_x0020_1">
  <metadata id="CorelCorpID_0Corel-Layer"/>
  <g id="_1326082771024">
   <path class="fil0" d="M5.04 5.04l0 -1.06c0,-0.21 0.35,-0.3 0.46,-0.07 0.04,0.08 0.03,0.2 0.03,0.31 0,0.22 0,0.44 0,0.66 0.09,0.02 0.35,0.17 0.45,0.22 0.12,0.06 0.36,0.14 0.36,0.32 0,0.16 -0.11,0.25 -0.28,0.25 -0.06,0 -0.69,-0.33 -0.83,-0.4 -0.1,-0.05 -0.18,-0.09 -0.18,-0.23zm-2.02 -0.11c0,0.53 0.07,0.83 0.32,1.26 0.23,0.4 0.61,0.71 1.02,0.91 0.82,0.39 1.89,0.17 2.52,-0.46 0.88,-0.89 0.9,-2.31 0.04,-3.17 -0.05,-0.05 -0.09,-0.09 -0.13,-0.13l-0.5 -0.34c-0.86,-0.43 -1.93,-0.25 -2.61,0.43 -0.36,0.36 -0.66,0.95 -0.66,1.5z"/>
   <path class="fil0" d="M1.5 0.3l0 0.44 -0.71 0c-0.45,0 -0.79,0.36 -0.79,0.71l0 1.09c0,0.11 0.11,0.22 0.28,0.22 0.1,0 0.22,-0.12 0.22,-0.22l0 -0.28 6.49 0c0.07,0 0.05,0.13 0.05,0.21 -0,0.18 -0.03,0.38 0.06,0.48 0.17,0.19 0.45,0.03 0.45,-0.15l0 -1.31c0,-0.4 -0.35,-0.74 -0.79,-0.74l-0.71 0c0,-0.23 0.07,-0.74 -0.22,-0.74l-0.08 0c-0.12,0 -0.22,0.13 -0.22,0.25l0 0.49 -1.5 0 0 -0.52c0,-0.2 -0.3,-0.29 -0.43,-0.16 -0.03,0.03 -0.08,0.11 -0.08,0.16l0 0.52 -1.5 0c0,-0.22 0.04,-0.53 -0.06,-0.65 -0.13,-0.16 -0.46,-0.13 -0.46,0.21z"/>
   <path class="fil0" d="M-0 3.49l0 2.7c0,0.11 0.04,0.21 0.08,0.29 0.04,0.09 0.09,0.14 0.16,0.21 0.12,0.12 0.29,0.22 0.53,0.22l1.99 0c0.3,0 0.37,-0.39 0.12,-0.49 -0.09,-0.04 -0.23,-0.03 -0.35,-0.03l-1.52 0c-0.19,0 -0.48,0.06 -0.49,-0.27l-0 -2.65c-0.04,-0.22 -0.35,-0.27 -0.47,-0.07 -0.02,0.03 -0.03,0.05 -0.03,0.1z"/>
   <path class="fil0" d="M1.12 3.51c0,0.15 0.12,0.27 0.27,0.27l0.74 0c0.12,0 0.25,-0.1 0.25,-0.22 0,-0.23 -0.1,-0.3 -0.36,-0.3 -0.2,0 -0.67,-0.03 -0.79,0.06 -0.04,0.03 -0.11,0.13 -0.11,0.19z"/>
   <path class="fil0" d="M1.12 4.27c0,0.16 0.13,0.27 0.3,0.27l0.7 0c0.13,0 0.27,-0.1 0.27,-0.22l0 -0.08c0,-0.12 -0.14,-0.22 -0.27,-0.22l-0.7 0c-0.12,0 -0.22,0.05 -0.27,0.14 -0.01,0.01 -0.03,0.09 -0.03,0.11z"/>
   <path class="fil0" d="M1.12 5.03c0,0.21 0.19,0.27 0.38,0.27 0.17,0 0.65,0.02 0.76,-0.04 0.22,-0.13 0.14,-0.48 -0.13,-0.48l-0.74 0c-0.16,0 -0.27,0.13 -0.27,0.25z"/>
  </g>
 </g>
</svg>
